
<svg xmlns="http://www.w3.org/2000/svg" viewBox="0 0 600 198" fill="#737373" xml:space="preserve">
<path id="logo-bar" d="M224.4,2.2v193.3c0,1,0.7,1.6,2.1,1.6c0.5,0,1-0.2,1.4-0.4c0.4-0.3,0.6-0.7,0.6-1.2V2.2c0-1-0.7-1.6-2.1-1.6
	c-0.5,0-1,0.1-1.4,0.4C224.6,1.3,224.4,1.7,224.4,2.2z"/>
<g>
	<defs>
		<rect x="229" y="13" width="300" height="48"/>
	</defs>
	<g>
		<path id="der-neue" class="st1" d="M247.4,57.6V14.9c0-0.4,0.2-0.8,0.5-1.1c0.4-0.3,0.8-0.5,1.3-0.5h11.1c4,0,7.1,1.1,9.5,3.2
			c2.4,2.1,3.6,5.5,3.6,10.1v19.1c0,4.6-1.2,8-3.6,10.2c-2.4,2.1-5.6,3.2-9.5,3.2h-11.1c-0.6,0-1-0.2-1.3-0.5
			C247.6,58.4,247.4,58.1,247.4,57.6z M251.5,55.4h8.8c2.8,0,5-0.8,6.6-2.4c1.6-1.6,2.3-4,2.3-7.2V26.7c0-3.2-0.8-5.6-2.3-7.2
			c-1.6-1.6-3.8-2.4-6.6-2.4h-8.8V55.4z M282.5,57.6V14.9c0-0.5,0.2-0.9,0.6-1.2c0.4-0.3,0.8-0.4,1.3-0.4h22.3c1,0,1.6,0.6,1.6,1.8
			c0,0.6-0.1,1-0.4,1.4c-0.3,0.4-0.6,0.6-1.2,0.6h-20.1v17.3h9.8c0.5,0,0.9,0.2,1.2,0.5c0.3,0.4,0.4,0.8,0.4,1.3
			c0,1.1-0.5,1.7-1.6,1.7h-9.8v17.4h20.1c0.5,0,0.8,0.2,1.1,0.6c0.3,0.4,0.5,0.8,0.5,1.4c0,1.3-0.5,1.9-1.6,1.9h-22.3
			c-0.5,0-0.9-0.2-1.3-0.5C282.7,58.5,282.5,58.1,282.5,57.6z M463.4,57.6V14.9c0-0.5,0.2-0.9,0.6-1.2c0.4-0.3,0.8-0.4,1.3-0.4h22.3
			c1,0,1.6,0.6,1.6,1.8c0,0.6-0.1,1-0.4,1.4c-0.3,0.4-0.6,0.6-1.2,0.6h-20.1v17.3h9.8c0.5,0,0.9,0.2,1.2,0.5
			c0.3,0.4,0.4,0.8,0.4,1.3c0,1.1-0.5,1.7-1.6,1.7h-9.8v17.4h20.1c0.5,0,0.8,0.2,1.1,0.6c0.3,0.4,0.5,0.8,0.5,1.4
			c0,1.3-0.5,1.9-1.6,1.9h-22.3c-0.5,0-0.9-0.2-1.3-0.5C463.6,58.5,463.4,58.1,463.4,57.6z M427.7,46.2V14.9c0-1,0.7-1.5,2.1-1.5
			c1.4,0,2.1,0.5,2.1,1.5v31.3c0,3.2,0.8,5.6,2.3,7.2s3.8,2.4,6.7,2.4c2.9,0,5.1-0.8,6.7-2.4c1.6-1.6,2.3-4,2.3-7.2V14.9
			c0-1,0.7-1.5,2.1-1.5c1.4,0,2.1,0.5,2.1,1.5v31.3c0,4.6-1.2,8-3.6,10.2c-2.4,2.1-5.6,3.2-9.6,3.2s-7.1-1.1-9.6-3.2
			C428.9,54.2,427.7,50.8,427.7,46.2z M360.1,14.9v42.6c0,0.5,0.2,0.9,0.6,1.3c0.4,0.3,0.9,0.5,1.5,0.5c0.5,0,1-0.2,1.4-0.5
			c0.4-0.3,0.6-0.7,0.6-1.2V23l17.5,33.9c0.8,1.6,1.7,2.4,2.8,2.4c0.5,0,1-0.2,1.4-0.5c0.4-0.3,0.6-0.7,0.6-1.2V14.9
			c0-1-0.7-1.5-2.1-1.5c-1.4,0-2.1,0.5-2.1,1.5v34.7l-16.9-33.4c-1-1.9-2.1-2.9-3.2-2.9C360.8,13.4,360.1,13.9,360.1,14.9z
			 M396,14.9v42.6c0,0.5,0.2,0.9,0.6,1.1c0.4,0.3,0.8,0.5,1.3,0.5h22.3c1,0,1.6-0.6,1.6-1.9c0-0.6-0.1-1-0.4-1.4
			c-0.3-0.4-0.7-0.6-1.1-0.6h-20.1V37.9h9.8c1,0,1.6-0.6,1.6-1.7c0-0.5-0.2-1-0.4-1.3c-0.3-0.4-0.7-0.5-1.2-0.5h-9.8V17.1h20.1
			c0.5,0,0.9-0.2,1.2-0.6c0.3-0.4,0.4-0.8,0.4-1.4c0-1.2-0.5-1.8-1.6-1.8h-22.3c-0.5,0-0.9,0.2-1.3,0.4
			C396.2,14.1,396,14.5,396,14.9z M314.4,14.9v42.7c0,0.5,0.2,0.9,0.7,1.1c0.4,0.3,0.9,0.5,1.5,0.5c0.5,0,1-0.2,1.4-0.5
			c0.4-0.3,0.6-0.7,0.6-1.2V38.3h8l9.7,18.8c0.7,1.5,1.5,2.2,2.2,2.2c0.6,0,1.1-0.2,1.6-0.7c0.5-0.4,0.7-0.9,0.7-1.5
			c0-0.3-0.1-0.6-0.3-0.8l-9.7-18.6c6.5-1.1,9.8-5.1,9.8-12.1c0-4.4-1.3-7.5-3.7-9.5s-5.8-2.9-9.8-2.9h-11.1
			C314.9,13.4,314.4,14,314.4,14.9z M327,34.8h-8.5V17.2h8.5c6.2,0,9.4,2.9,9.4,8.7C336.4,31.8,333.3,34.8,327,34.8z"/>
	</g>
</g>
<g>
	<defs>
		<rect x="229" y="76" width="550" height="48"/>
	</defs>
	<g style="clip-path:url(#SVGID_00000082329900544610678250000017131004025693772448_);">
		<path id="soundtrack" class="st1" d="M478.4,120.2c0-0.2,0-0.4,0.1-0.5l13.1-42.6c0.3-1,1.1-1.4,2.4-1.4c1.3,0,2.2,0.5,2.5,1.4
			l13.1,42.6c0,0,0,0.1,0,0.2c0,0.1,0,0.2,0,0.2l0,0c0,0.5-0.3,0.9-0.8,1.3c-0.6,0.4-1.1,0.5-1.7,0.5c-0.8,0-1.3-0.4-1.6-1.1
			l-2.9-9.7h-17.4l-2.9,9.7c-0.2,0.7-0.7,1.1-1.6,1.1c-0.6,0-1.1-0.2-1.6-0.5C478.6,121.1,478.4,120.7,478.4,120.2z M245.4,114.1
			c-0.4,0.5-0.6,1-0.6,1.5c0,1.4,1.2,2.8,3.6,4.4c2.5,1.6,5.5,2.3,9.2,2.3c4.1,0,7.3-1.1,9.7-3.2c2.4-2.1,3.6-5.4,3.6-9.7
			c0-2.7-0.5-5-1.5-6.9c-1-1.9-2.3-3.3-3.9-4.1c-1.5-0.8-3.2-1.7-5-2.4c-1.8-0.7-3.4-1.4-5-2c-1.6-0.6-2.9-1.4-3.9-2.6
			c-1-1.2-1.5-2.7-1.5-4.5c0-2.6,0.8-4.5,2.6-5.6c1.7-1.1,3.9-1.7,6.5-1.7c1.6,0,3.1,0.2,4.4,0.6c1.3,0.4,2.3,0.8,3,1.2
			s1.2,0.6,1.4,0.6c0.5,0,0.9-0.3,1.3-0.8c0.4-0.5,0.5-1,0.5-1.5c0-1.1-1.1-2-3.3-2.7c-2.2-0.7-4.6-1.1-7.2-1.1
			c-1.6,0-3.1,0.2-4.6,0.5c-1.4,0.4-2.8,0.9-4.2,1.7c-1.4,0.8-2.5,2-3.3,3.5c-0.8,1.6-1.2,3.4-1.2,5.6c0,2,0.4,3.8,1.2,5.3
			c0.8,1.5,1.8,2.6,3,3.4c1.2,0.8,2.5,1.5,4,2.1l4.5,1.8c1.5,0.6,2.8,1.3,4,2c1.2,0.7,2.2,1.7,3,3.1c0.8,1.3,1.2,2.9,1.2,4.8
			c0,2.8-0.8,4.9-2.4,6.4c-1.6,1.5-3.9,2.2-6.9,2.2c-1.8,0-3.4-0.3-4.7-0.8c-1.4-0.5-2.4-1.1-3-1.8l-1.8-1.8
			c-0.5-0.6-0.9-0.8-1.3-0.8C246.3,113.3,245.8,113.6,245.4,114.1z M312.8,77.6v31.3c0,4.6,1.2,8,3.6,10.2c2.4,2.1,5.6,3.2,9.6,3.2
			s7.1-1.1,9.6-3.2c2.4-2.2,3.6-5.6,3.6-10.2V77.6c0-1-0.7-1.5-2.1-1.5c-1.4,0-2.1,0.5-2.1,1.5v31.3c0,3.2-0.8,5.6-2.3,7.2
			c-1.6,1.6-3.8,2.4-6.7,2.4c-2.9,0-5.1-0.8-6.7-2.4c-1.6-1.6-2.3-4-2.3-7.2V77.6c0-1-0.7-1.5-2.1-1.5
			C313.5,76.1,312.8,76.6,312.8,77.6z M515.2,108.9V89.5c0-4.6,1.2-7.9,3.7-10.1c2.4-2.2,5.6-3.2,9.5-3.2c4,0,7.1,1,9.5,3
			c2.3,2,3.5,4.5,3.5,7.4c0,1-0.2,1.7-0.5,2c-0.3,0.3-0.8,0.5-1.6,0.5c-1.3,0-2-0.5-2.1-1.6c0-0.6-0.1-1.2-0.3-1.8s-0.4-1.2-0.7-2
			c-0.4-0.7-0.9-1.4-1.5-1.9c-0.6-0.6-1.5-1-2.5-1.3c-1.1-0.4-2.3-0.5-3.8-0.5c-6,0-9,3.2-9,9.5v19.4c0,6.4,3.1,9.6,9.3,9.6
			c1.8,0,3.2-0.2,4.4-0.7c1.2-0.5,2-1.2,2.6-2.1c0.6-0.9,0.9-1.7,1.1-2.3c0.2-0.7,0.4-1.5,0.5-2.5c0.1-1.1,0.8-1.6,2.1-1.6
			c0.7,0,1.3,0.2,1.6,0.5c0.3,0.4,0.5,1,0.5,2c0,3-1.2,5.5-3.5,7.5c-2.4,2-5.6,3.1-9.6,3.1c-3.8,0-7-1.1-9.4-3.2
			C516.4,116.9,515.2,113.5,515.2,108.9z M277.9,89.5v19.4c0,4.6,1.2,8,3.5,10.2c2.3,2.1,5.5,3.2,9.5,3.2s7.1-1.1,9.5-3.2
			c2.4-2.2,3.5-5.6,3.5-10.2V89.5c0-4.6-1.2-8-3.5-10.1c-2.3-2.1-5.5-3.2-9.5-3.2s-7.1,1.1-9.5,3.2C279,81.5,277.9,84.9,277.9,89.5z
			 M548.5,120.3V77.6c0-1,0.7-1.5,2.1-1.5c1.4,0,2.1,0.5,2.1,1.5v22.2l18.1-23.1c0.3-0.4,0.7-0.6,1.3-0.6c0.5,0,1,0.2,1.5,0.7
			c0.5,0.5,0.7,0.9,0.7,1.4c0,0.4-0.1,0.7-0.3,0.9l-13.5,16.7l15.4,23.2c0.2,0.3,0.3,0.6,0.3,0.8c0,0.6-0.3,1-0.7,1.5
			c-0.5,0.5-1,0.7-1.6,0.7c-0.6,0-1.1-0.3-1.6-0.9l-14.5-21.8l-5.1,6.5v14.4c0,0.5-0.2,0.9-0.6,1.2c-0.4,0.3-0.9,0.5-1.5,0.5
			c-0.6,0-1.1-0.2-1.5-0.5C548.7,121.2,548.5,120.8,548.5,120.3z M448.7,77.6v42.7c0,0.5,0.2,0.9,0.6,1.2c0.4,0.3,0.9,0.5,1.5,0.5
			c0.6,0,1-0.2,1.5-0.5c0.4-0.3,0.6-0.7,0.6-1.2V101h8l9.7,18.8c0.7,1.5,1.5,2.2,2.2,2.2c0.6,0,1.1-0.2,1.6-0.7
			c0.5-0.4,0.7-0.9,0.7-1.5c0-0.3-0.1-0.6-0.3-0.8l-9.7-18.6c6.5-1.1,9.8-5.1,9.8-12.1c0-4.4-1.2-7.5-3.7-9.5
			c-2.5-1.9-5.8-2.9-9.8-2.9h-11.1C449.2,76.2,448.7,76.7,448.7,77.6z M415.1,76.7c-0.3,0.4-0.4,0.8-0.4,1.3c0,0.6,0.1,1,0.5,1.4
			c0.3,0.4,0.7,0.6,1.1,0.6h10.5v40.3c0,0.5,0.2,0.9,0.6,1.2c0.4,0.3,0.9,0.5,1.5,0.5c0.5,0,1-0.2,1.4-0.5c0.4-0.3,0.6-0.7,0.6-1.2
			V80h10.5c0.5,0,0.9-0.2,1.2-0.6c0.3-0.4,0.4-0.8,0.4-1.4c0-0.5-0.2-1-0.4-1.3c-0.3-0.4-0.7-0.6-1.2-0.6h-25.2
			C415.7,76.1,415.4,76.3,415.1,76.7z M384.4,120.4V77.6c0-0.4,0.2-0.8,0.5-1.1c0.4-0.3,0.8-0.5,1.3-0.5h11.1c4,0,7.1,1.1,9.5,3.2
			c2.4,2.1,3.6,5.5,3.6,10.1v19.1c0,4.6-1.2,8-3.6,10.2c-2.4,2.1-5.6,3.2-9.5,3.2h-11.1c-0.6,0-1-0.2-1.3-0.5
			C384.6,121.1,384.4,120.8,384.4,120.4z M348.5,77.7v42.6c0,0.5,0.2,0.9,0.7,1.3c0.4,0.3,0.9,0.5,1.5,0.5c0.5,0,1-0.2,1.4-0.5
			c0.4-0.3,0.6-0.7,0.6-1.2V85.7l17.4,33.9c0.8,1.6,1.7,2.4,2.8,2.4c0.5,0,1-0.2,1.4-0.5c0.4-0.3,0.6-0.7,0.6-1.2V77.6
			c0-1-0.7-1.5-2.1-1.5c-1.4,0-2.1,0.5-2.1,1.5v34.7L353.8,79c-1-1.9-2.1-2.9-3.2-2.9C349.2,76.1,348.5,76.6,348.5,77.7z
			 M290.9,118.5c-5.9,0-8.9-3.2-8.9-9.6V89.5c0-6.3,3-9.5,8.9-9.5s8.9,3.2,8.9,9.5v19.4C299.8,115.3,296.9,118.5,290.9,118.5z
			 M388.6,118.1h8.8c2.8,0,5-0.8,6.6-2.4c1.6-1.6,2.3-4,2.3-7.2V89.5c0-3.2-0.8-5.6-2.3-7.1c-1.6-1.6-3.8-2.4-6.6-2.4h-8.8V118.1z
			 M461.3,97.5h-8.5V79.9h8.5c6.2,0,9.4,2.9,9.4,8.7C470.7,94.5,467.6,97.5,461.3,97.5z M486.4,107.6h15.2L494,82.3L486.4,107.6z"/>
	</g>
</g>
<g>
	<defs>
		<rect x="229" y="126" width="300" height="61"/>
	</defs>
	<g style="clip-path:url(#SVGID_00000038372038795698228420000006339457717353693073_);">
		<path id="fur-wien" class="st1" d="M285.8,127.6c-0.4,0.4-0.7,0.9-0.7,1.6c0,0.6,0.2,1.2,0.7,1.6c0.4,0.5,1,0.7,1.7,0.7
			c0.6,0,1.2-0.2,1.6-0.7c0.4-0.5,0.6-1,0.6-1.6c0-0.6-0.2-1.2-0.6-1.6c-0.4-0.4-1-0.6-1.6-0.6C286.8,127,286.3,127.2,285.8,127.6z
			 M247.4,183.1v-42.7c0-0.5,0.2-0.9,0.6-1.2c0.4-0.3,0.8-0.4,1.3-0.4h22.2c0.5,0,0.9,0.2,1.2,0.5c0.3,0.4,0.4,0.8,0.4,1.3
			c0,0.6-0.1,1-0.4,1.4c-0.3,0.4-0.7,0.6-1.2,0.6h-20v17.3h9.9c0.5,0,0.8,0.2,1.1,0.5c0.3,0.4,0.4,0.8,0.4,1.4
			c0,1.1-0.5,1.7-1.5,1.7h-9.9v19.6c0,0.5-0.2,0.9-0.6,1.2c-0.4,0.3-0.9,0.4-1.4,0.4C248.1,184.7,247.4,184.1,247.4,183.1z
			 M356.9,139.3c-0.5,0.4-0.7,0.7-0.7,1.2c0,0.2,0,0.4,0.1,0.5l12.4,42.5c0.3,1,1.1,1.5,2.5,1.5c1.4,0,2.2-0.5,2.4-1.5l5.9-22.1
			l5.9,22.1c0.2,1,1.1,1.5,2.4,1.5c1.3,0,2.2-0.5,2.5-1.5l12.3-42.5v0c0-0.2,0.1-0.3,0.1-0.5c0-0.5-0.3-0.9-0.7-1.2
			c-0.5-0.4-1-0.5-1.6-0.5c-0.9,0-1.4,0.4-1.6,1.1L388,178.4l-6.3-23.4c-0.3-0.9-1-1.4-2.1-1.4c-1.3,0-2,0.5-2.2,1.4l-6.3,23.4
			l-10.9-38.5c-0.2-0.7-0.7-1.1-1.6-1.1C358,138.8,357.5,139,356.9,139.3z M278.2,140.3v31.3c0,4.6,1.2,8,3.7,10.2
			c2.4,2.1,5.6,3.2,9.6,3.2s7.1-1.1,9.6-3.2c2.4-2.2,3.6-5.6,3.6-10.2v-31.3c0-1-0.7-1.5-2.1-1.5c-1.4,0-2.1,0.5-2.1,1.5v31.3
			c0,3.2-0.8,5.6-2.3,7.2c-1.6,1.6-3.8,2.4-6.7,2.4c-2.9,0-5.1-0.8-6.7-2.4c-1.6-1.6-2.3-4-2.3-7.2v-31.3c0-1-0.7-1.5-2.1-1.5
			C278.9,138.8,278.2,139.3,278.2,140.3z M313.9,183v-42.7c0-0.9,0.5-1.4,1.6-1.5h11.1c4.1,0,7.3,1,9.8,2.9c2.5,1.9,3.7,5.1,3.7,9.5
			c0,7-3.2,11-9.8,12.1l9.7,18.6c0.2,0.2,0.3,0.5,0.3,0.8c0,0.6-0.3,1-0.7,1.5c-0.5,0.5-1,0.7-1.6,0.7c-0.7,0-1.5-0.7-2.2-2.2
			l-9.7-18.8h-8V183c0,0.5-0.2,0.9-0.6,1.2c-0.4,0.3-0.9,0.5-1.5,0.5c-0.6,0-1.1-0.2-1.5-0.5C314.1,183.9,313.9,183.5,313.9,183z
			 M422.6,140.4V183c0,0.5,0.2,0.9,0.6,1.1c0.4,0.3,0.8,0.5,1.3,0.5h22.4c1,0,1.6-0.6,1.6-1.9c0-0.5-0.1-1-0.4-1.4
			c-0.3-0.4-0.7-0.6-1.1-0.6h-20.1v-17.4h9.8c1,0,1.6-0.6,1.6-1.7c0-0.6-0.2-1-0.4-1.4c-0.3-0.4-0.6-0.5-1.2-0.5h-9.8v-17.3h20.1
			c0.5,0,0.9-0.2,1.2-0.6c0.3-0.4,0.4-0.8,0.4-1.4c0-1.2-0.5-1.8-1.6-1.8h-22.3c-0.5,0-0.9,0.2-1.3,0.4
			C422.8,139.5,422.6,139.9,422.6,140.4z M408.9,140.3V183c0,0.5,0.2,0.9,0.6,1.2c0.4,0.3,0.9,0.5,1.5,0.5c0.5,0,1-0.2,1.4-0.5
			c0.4-0.3,0.6-0.7,0.6-1.2v-42.7c0-1-0.7-1.5-2.1-1.5C409.6,138.8,408.9,139.3,408.9,140.3z M454.5,183v-42.6c0-1,0.7-1.6,2.1-1.6
			c1.2,0,2.3,1,3.2,2.9l16.9,33.4v-34.7c0-1,0.7-1.5,2.1-1.5c1.4,0,2.1,0.5,2.1,1.5v42.7c0,0.5-0.2,0.9-0.6,1.2
			c-0.4,0.3-0.9,0.5-1.4,0.5c-1,0-1.9-0.8-2.8-2.4l-17.5-33.9v34.7c0,0.5-0.2,0.9-0.6,1.2c-0.4,0.3-0.9,0.5-1.4,0.5
			c-0.6,0-1.1-0.2-1.5-0.5C454.7,183.9,454.5,183.5,454.5,183z M292.9,129.2c0-0.7,0.2-1.2,0.6-1.6c0.5-0.4,1-0.6,1.7-0.6
			c0.7,0,1.2,0.2,1.6,0.6c0.4,0.4,0.6,1,0.6,1.6c0,0.6-0.2,1.2-0.6,1.6c-0.4,0.5-1,0.7-1.6,0.7c-0.7,0-1.2-0.2-1.7-0.7
			C293.1,130.4,292.9,129.9,292.9,129.2z M318,160.2h8.5c6.3,0,9.4-3,9.4-8.8c0-5.8-3.2-8.7-9.4-8.7H318V160.2z"/>
	</g>
</g>
<path id="small-logo" d="M30.2,189.1v-5.1c0-1.5,0.4-2.5,1.2-3.2c0.8-0.7,1.8-1,3.1-1c1.3,0,2.4,0.3,3.2,1c0.8,0.7,1.2,1.5,1.2,2.6
	c0,0.5-0.1,0.7-0.3,0.9c-0.2,0.2-0.5,0.2-0.9,0.2c-0.8,0-1.2-0.3-1.2-0.7c0-0.6-0.2-1-0.5-1.3c-0.3-0.3-0.7-0.5-1.5-0.5
	c-1.3,0-1.9,0.7-1.9,2.1v5.1c0,1.4,0.7,2.1,1.9,2.1c0.6,0,1.1-0.2,1.4-0.6c0.3-0.4,0.5-0.9,0.5-1.6v-1.1H35c-0.2,0-0.4-0.1-0.6-0.3
	c-0.1-0.2-0.2-0.4-0.2-0.6c0-0.3,0.1-0.5,0.2-0.6c0.1-0.2,0.3-0.3,0.5-0.3h3.2c0.2,0,0.4,0.1,0.6,0.2c0.1,0.2,0.2,0.3,0.2,0.6v2.2
	c0,1.5-0.4,2.5-1.2,3.2c-0.8,0.7-1.8,1-3.2,1s-2.4-0.3-3.2-1C30.6,191.6,30.2,190.5,30.2,189.1z M170.6,189.1v-5.1
	c0-1.5,0.4-2.5,1.2-3.2c0.8-0.7,1.8-1,3.2-1c1.3,0,2.4,0.3,3.2,1c0.8,0.7,1.2,1.8,1.2,3.2v5.1c0,1.5-0.4,2.5-1.2,3.2
	c-0.8,0.7-1.8,1-3.2,1c-1.3,0-2.4-0.3-3.2-1C171,191.6,170.6,190.5,170.6,189.1z M111.5,192.5v-12c0-0.2,0.1-0.4,0.2-0.5
	c0.2-0.2,0.3-0.2,0.6-0.2h3.6c2.9,0,4.4,1.3,4.4,3.9c0,1-0.2,1.8-0.6,2.4c-0.5,0.6-1,1-1.8,1.3l2.4,4.5c0.1,0.1,0.1,0.2,0.1,0.3
	c0,0.3-0.2,0.6-0.5,0.8c-0.3,0.3-0.6,0.4-1,0.4c-0.4,0-0.7-0.2-0.8-0.6l-2.6-5.1h-1.6v4.8c0,0.2-0.1,0.4-0.4,0.6
	c-0.2,0.1-0.5,0.2-0.8,0.2c-0.3,0-0.6-0.1-0.8-0.2C111.6,192.8,111.5,192.7,111.5,192.5z M3.7,192.5v-12c0-0.2,0.1-0.4,0.3-0.5
	c0.2-0.2,0.5-0.2,0.7-0.2H8c1.3,0,2.4,0.3,3.2,1c0.8,0.7,1.2,1.8,1.2,3.2v5c0,1.5-0.4,2.5-1.2,3.2c-0.8,0.7-1.9,1-3.2,1H4.7
	c-0.3,0-0.6-0.1-0.7-0.2C3.8,192.8,3.7,192.6,3.7,192.5z M20.1,192.5v-12c0-0.3,0.1-0.4,0.4-0.6c0.2-0.1,0.5-0.2,0.8-0.2
	c0.3,0,0.6,0.1,0.8,0.2c0.2,0.1,0.4,0.3,0.4,0.6v12c0,0.2-0.1,0.4-0.4,0.6c-0.2,0.1-0.5,0.2-0.8,0.2c-0.3,0-0.6-0.1-0.8-0.2
	C20.2,192.8,20.1,192.7,20.1,192.5z M46.5,192.5v-12c0-0.3,0.1-0.4,0.4-0.6c0.2-0.1,0.5-0.2,0.8-0.2s0.6,0.1,0.8,0.2
	c0.2,0.1,0.4,0.3,0.4,0.6v12c0,0.2-0.1,0.4-0.4,0.6c-0.2,0.1-0.5,0.2-0.8,0.2s-0.6-0.1-0.8-0.2S46.5,192.7,46.5,192.5z M160.4,192.5
	v-12c0-0.3,0.1-0.4,0.4-0.6c0.2-0.1,0.5-0.2,0.8-0.2c0.3,0,0.6,0.1,0.8,0.2c0.2,0.1,0.4,0.3,0.4,0.6v12c0,0.2-0.1,0.4-0.4,0.6
	c-0.2,0.1-0.5,0.2-0.8,0.2c-0.3,0-0.6-0.1-0.8-0.2C160.6,192.8,160.4,192.7,160.4,192.5z M87.5,192.5v-12c0-0.3,0.1-0.4,0.4-0.6
	c0.2-0.1,0.5-0.2,0.8-0.2c0.3,0,0.6,0.1,0.8,0.2c0.2,0.1,0.4,0.3,0.4,0.6v10.6h4.5c0.2,0,0.4,0.1,0.5,0.3c0.1,0.2,0.2,0.5,0.2,0.7
	c0,0.3-0.1,0.5-0.2,0.7c-0.1,0.2-0.3,0.3-0.5,0.3h-5.8c-0.3,0-0.5-0.1-0.7-0.2C87.6,192.8,87.5,192.7,87.5,192.5z M144,192.5v-12
	c0-0.2,0.1-0.4,0.3-0.5c0.2-0.2,0.5-0.2,0.7-0.2h3.2c1.3,0,2.4,0.3,3.2,1c0.8,0.7,1.2,1.8,1.2,3.2v5c0,1.5-0.4,2.5-1.2,3.2
	c-0.8,0.7-1.9,1-3.2,1h-3.2c-0.3,0-0.6-0.1-0.7-0.2C144.1,192.8,144,192.6,144,192.5z M55.9,180.8c0-0.3,0.1-0.5,0.2-0.7
	c0.1-0.2,0.3-0.3,0.6-0.3h7.8c0.2,0,0.4,0.1,0.6,0.3c0.1,0.2,0.2,0.5,0.2,0.7c0,0.3-0.1,0.6-0.2,0.8c-0.1,0.2-0.3,0.3-0.6,0.3h-2.7
	v10.6c0,0.2-0.1,0.4-0.4,0.6c-0.2,0.1-0.5,0.2-0.8,0.2s-0.6-0.1-0.8-0.2c-0.2-0.1-0.4-0.3-0.4-0.6v-10.6h-2.7
	c-0.2,0-0.4-0.1-0.6-0.3C56,181.4,55.9,181.1,55.9,180.8z M70.2,192.2c0,0,0-0.1,0-0.2l3.6-11.6c0.1-0.3,0.3-0.5,0.6-0.6
	c0.3-0.1,0.6-0.2,1-0.2c0.4,0,0.7,0.1,1,0.2c0.3,0.1,0.5,0.4,0.6,0.6l3.6,11.6c0,0.1,0,0.2,0,0.2c0,0.3-0.2,0.5-0.5,0.7
	c-0.3,0.2-0.7,0.3-1,0.3c-0.5,0-0.7-0.2-0.8-0.5l-0.7-2.4h-4.2l-0.7,2.4c-0.1,0.3-0.4,0.5-0.8,0.5c-0.4,0-0.7-0.1-1-0.3
	C70.4,192.7,70.2,192.5,70.2,192.2z M126.8,192.2c0,0,0-0.1,0-0.2l3.5-11.6c0.1-0.3,0.3-0.5,0.6-0.6c0.3-0.1,0.6-0.2,1-0.2
	c0.4,0,0.7,0.1,1,0.2c0.3,0.1,0.5,0.4,0.6,0.6L137,192c0,0.1,0,0.2,0,0.2c0,0.3-0.2,0.5-0.5,0.7c-0.3,0.2-0.7,0.3-1,0.3
	c-0.5,0-0.7-0.2-0.8-0.5l-0.7-2.4h-4.2l-0.7,2.4c-0.1,0.3-0.4,0.5-0.8,0.5c-0.4,0-0.7-0.1-1-0.3
	C126.9,192.7,126.8,192.5,126.8,192.2z M173,189.1c0,1.4,0.7,2.1,1.9,2.1c1.3,0,1.9-0.7,1.9-2.1v-5.1c0-1.4-0.6-2.1-1.9-2.1
	c-1.3,0-1.9,0.7-1.9,2.1V189.1z M6,191.1H8c1.3,0,1.9-0.7,1.9-2.1v-5c0-1.4-0.7-2.1-1.9-2.1H6V191.1z M146.4,191.1h1.9
	c1.3,0,1.9-0.7,1.9-2.1v-5c0-1.4-0.6-2.1-1.9-2.1h-1.9V191.1z M73.7,188.4H77l-1.6-5.7L73.7,188.4z M130.3,188.4h3.2l-1.6-5.7
	L130.3,188.4z M113.9,185.8h2c1.3,0,2-0.7,2-1.9c0-1.3-0.7-2-2-2h-2V185.8z M141.2,147.1c0-1.1,0.3-1.8,0.8-2.2
	c0.5-0.4,1.4-0.6,2.7-0.6c1.5,0,2.4,0.2,3,0.6c0.5,0.4,0.8,1,0.8,2c0,1.3,0.5,2.3,1.6,3c1,0.7,2.5,1.1,4.3,1.1
	c2.1,0,3.6-0.5,4.6-1.4c0.9-0.9,1.4-2.5,1.4-4.6v-1.1c0-3.5-2-5.3-6.2-5.3c-1.5,0-2.2-0.9-2.2-2.9c0-1.9,0.7-2.9,2.2-2.9
	c1.7,0,2.9-0.4,3.8-1.1c0.9-0.7,1.3-2.2,1.3-4.4c0-3.3-1.7-4.9-4.9-4.9c-3.3,0-5,1.3-5,3.8c0,1.9-1.2,2.8-3.5,2.8
	c-1.6,0-2.6-0.2-3.1-0.6c-0.5-0.4-0.7-1.3-0.7-2.5c0-1.1,0.2-2.1,0.6-3.2c0.4-1.1,1-2.1,1.9-3.1c0.9-1,2.1-1.8,3.8-2.5
	s3.6-0.9,5.9-0.9c7.9,0,11.8,3.3,11.8,10c0,2.2-0.4,4.2-1.1,5.9c-0.8,1.7-1.9,2.8-3.2,3.4c3.8,1.5,5.7,4.3,5.7,8.4v1.1
	c0,4.3-1.2,7.4-3.7,9.4c-2.5,2-5.7,3-9.7,3c-4.2,0-7.4-1-9.6-3.2C142.3,152.1,141.2,149.7,141.2,147.1z M0.2,144.5v-15.6
	c0-4.4,1.2-7.6,3.6-9.7c2.4-2.1,5.5-3.1,9.4-3.1c3.9,0,7.1,1,9.6,2.9c2.5,1.9,3.7,4.5,3.7,7.7c0,1.4-0.3,2.3-0.8,2.8
	c-0.6,0.5-1.5,0.7-2.8,0.7c-2.4,0-3.6-0.8-3.6-2.3c0-0.5-0.1-0.9-0.1-1.3c-0.1-0.4-0.2-0.8-0.5-1.4c-0.2-0.6-0.6-1.1-0.9-1.5
	s-0.9-0.7-1.7-1c-0.7-0.3-1.6-0.4-2.6-0.4c-3.9,0-5.9,2.1-5.9,6.4v15.6c0,4.3,2,6.4,6,6.4c1.2,0,2.2-0.2,3-0.6
	c0.8-0.4,1.4-0.9,1.7-1.6c0.4-0.7,0.6-1.3,0.7-1.9c0.1-0.6,0.2-1.2,0.3-2c0.1-1.5,1.3-2.3,3.6-2.3c1.3,0,2.2,0.3,2.8,0.7
	c0.6,0.5,0.9,1.5,0.9,2.8c0,3.4-1.2,6-3.7,8.1c-2.5,2-5.7,3-9.7,3c-3.8,0-7-1-9.3-3.1C1.3,152.2,0.2,148.9,0.2,144.5z M33.6,154.7
	v-36.4c0-0.7,0.4-1.3,1.1-1.7s1.6-0.6,2.6-0.6c1,0,1.9,0.2,2.6,0.6c0.7,0.4,1.1,0.9,1.1,1.7v36.4c0,0.7-0.4,1.3-1.1,1.7
	c-0.7,0.4-1.6,0.6-2.5,0.6c-1,0-1.9-0.2-2.6-0.6C34,156,33.6,155.4,33.6,154.7z M112.1,154.7v-5.4c0-1.7,0.6-3.3,1.9-4.9
	c1.2-1.6,2.7-3.1,4.5-4.4l5.4-3.9c1.8-1.3,3.2-2.7,4.5-4.2c1.2-1.5,1.9-2.9,1.9-4.4c0-1.3-0.5-2.5-1.3-3.5c-0.9-1-2.2-1.5-3.9-1.5
	c-1.5,0-2.7,0.4-3.6,1.2c-0.9,0.8-1.4,2-1.4,3.7c0,0.7-0.4,1.3-1,1.9c-0.7,0.6-1.6,0.8-2.8,0.8c-2.2,0-3.3-1.3-3.3-3.9
	c0-3.1,1.2-5.6,3.6-7.4c2.4-1.9,5.2-2.9,8.4-2.9c3.4,0,6.3,1,8.8,3.1c2.5,2.1,3.7,4.8,3.7,8.3c0,2.2-0.6,4.4-1.8,6.3
	c-1.2,1.9-2.7,3.6-4.5,5c-1.8,1.3-3.5,2.6-5.2,3.8c-1.7,1.2-3.2,2.3-4.4,3.5c-1.2,1.2-1.8,2.3-1.8,3.3v1.3h15.6
	c0.6,0,1.1,0.3,1.6,0.9c0.5,0.6,0.7,1.4,0.7,2.2s-0.2,1.6-0.7,2.3c-0.5,0.7-1,1-1.6,1h-20c-0.7,0-1.4-0.2-2.1-0.7
	C112.4,155.9,112.1,155.3,112.1,154.7z M46.1,119.3c0-0.8,0.2-1.6,0.6-2.3s1-1,1.7-1h23.7c0.7,0,1.3,0.3,1.7,1s0.6,1.4,0.6,2.3
	c0,0.9-0.2,1.7-0.6,2.3c-0.4,0.7-1,1-1.7,1h-8.2v32.1c0,0.7-0.4,1.3-1.1,1.7c-0.7,0.4-1.6,0.6-2.5,0.6c-1,0-1.9-0.2-2.6-0.6
	c-0.7-0.4-1.1-1-1.1-1.7v-32.1h-8.2c-0.7,0-1.3-0.3-1.7-0.9C46.3,121,46.1,120.2,46.1,119.3z M77.7,119c0-0.8,0.5-1.5,1.6-2.1
	c1.1-0.6,2.1-0.9,3.2-0.9c1,0,1.8,0.5,2.2,1.5l8.5,16.2l8.6-16.2c0.5-1,1.3-1.5,2.2-1.5c1.1,0,2.1,0.3,3.2,0.9
	c1.1,0.6,1.6,1.3,1.6,2.1c0,0.3-0.1,0.6-0.2,0.7l-11.5,20.1c-0.2,0.2-0.2,0.5-0.2,0.7v14.1c0,0.7-0.4,1.3-1.1,1.7
	c-0.7,0.4-1.6,0.6-2.6,0.6c-1,0-1.8-0.2-2.5-0.6c-0.7-0.4-1.1-1-1.1-1.7v-14.1c0-0.3-0.1-0.6-0.2-0.7l-11.6-20.1
	C77.8,119.5,77.7,119.2,77.7,119z M184.2,107.5c0-0.3,0.2-0.5,0.5-0.7c0.4-0.2,0.8-0.3,1.4-0.3c0.6,0,1,0.1,1.4,0.3
	c0.4,0.2,0.6,0.5,0.6,0.8v10.5c0,0.3-0.2,0.6-0.6,0.8c-0.4,0.3-0.8,0.4-1.4,0.4c-0.6,0-1-0.1-1.4-0.4c-0.1,0-0.1-0.1-0.2-0.2
	c-0.8,0.3-1.7,0.5-2.7,0.5c-1.9,0-3.3-0.5-4.2-1.4c-0.9-1-1.4-2.2-1.4-3.8v-1.7c0-1.6,0.5-2.8,1.4-3.8c0.9-1,2.3-1.5,4.2-1.5
	C182.7,107.1,183.5,107.2,184.2,107.5z M170.5,117.3c0-0.5,0.2-1,0.6-1.4c0.4-0.4,0.8-0.6,1.4-0.6c0.5,0,1,0.2,1.3,0.6
	c0.4,0.4,0.6,0.8,0.6,1.3c0,0.5-0.2,1-0.6,1.3c-0.4,0.4-0.8,0.6-1.3,0.6s-1-0.2-1.4-0.6C170.7,118.3,170.5,117.8,170.5,117.3z
	 M190.5,114.9v-11.6c0-0.3,0.2-0.6,0.6-0.8c0.4-0.2,0.8-0.3,1.3-0.3c0.5,0,1,0.1,1.4,0.3c0.4,0.2,0.6,0.5,0.6,0.8v4h2.8
	c0.3,0,0.5,0.1,0.7,0.4c0.2,0.3,0.3,0.6,0.3,0.9c0,0.4-0.1,0.7-0.3,1c-0.2,0.3-0.4,0.4-0.7,0.4h-2.8v4.9c0,0.4,0.1,0.6,0.2,0.7
	c0.2,0.1,0.4,0.2,0.8,0.2h1.1c0.5,0,0.9,0.2,1.2,0.5c0.3,0.3,0.4,0.7,0.4,1.1c0,0.5-0.1,0.8-0.4,1.1c-0.3,0.3-0.7,0.5-1.2,0.5h-1.1
	C192.1,119.1,190.5,117.7,190.5,114.9z M184.3,111.4c0-0.1,0-0.2-0.1-0.2c-0.2-0.2-0.5-0.3-0.7-0.4c-0.5-0.2-1-0.3-1.5-0.3
	c-1.4,0-2.1,0.7-2.1,1.9v1.7c0,1.3,0.7,1.9,2.1,1.9c0.5,0,1-0.1,1.4-0.3c0.2-0.1,0.4-0.2,0.6-0.3c0.1-0.1,0.2-0.2,0.2-0.4
	C184.3,114.3,184.3,111.9,184.3,111.4z M131.7,91.2c-0.1,0-0.3-0.1-0.4-0.2c-0.1-0.1-0.2-0.2-0.2-0.4v-6.8c0-0.1,0.1-0.3,0.2-0.4
	c0.1-0.1,0.2-0.2,0.4-0.2h6.8c0.1,0,0.3,0.1,0.4,0.2c0.1,0.1,0.2,0.2,0.2,0.4v6.8c0,0.1-0.1,0.3-0.2,0.4c-0.1,0.1-0.2,0.2-0.4,0.2
	H131.7z M146.3,91.2c-0.1,0-0.3-0.1-0.4-0.2c-0.1-0.1-0.2-0.2-0.2-0.4v-6.8c0-0.1,0.1-0.3,0.2-0.4c0.1-0.1,0.2-0.2,0.4-0.2h6.8
	c0.1,0,0.3,0.1,0.4,0.2c0.1,0.1,0.2,0.2,0.2,0.4v6.8c0,0.1-0.1,0.3-0.2,0.4c-0.1,0.1-0.2,0.2-0.4,0.2H146.3z M131.7,76.6
	c-0.1,0-0.3-0.1-0.4-0.2c-0.1-0.1-0.2-0.2-0.2-0.4v-6.8c0-0.1,0.1-0.3,0.2-0.4c0.1-0.1,0.2-0.2,0.4-0.2h6.8c0.1,0,0.3,0.1,0.4,0.2
	c0.1,0.1,0.2,0.2,0.2,0.4V76c0,0.1-0.1,0.3-0.2,0.4c-0.1,0.1-0.2,0.2-0.4,0.2H131.7z M146.3,62c-0.1,0-0.3-0.1-0.4-0.2
	c-0.1-0.1-0.2-0.2-0.2-0.4v-6.8c0-0.1,0.1-0.3,0.2-0.4c0.1-0.1,0.2-0.2,0.4-0.2h6.8c0.1,0,0.3,0.1,0.4,0.2c0.1,0.1,0.2,0.2,0.2,0.4
	v6.8c0,0.1-0.1,0.3-0.2,0.4c-0.1,0.1-0.2,0.2-0.4,0.2H146.3z M58.6,62c-0.1,0-0.3-0.1-0.4-0.2S58,61.6,58,61.4v-6.8
	c0-0.1,0.1-0.3,0.2-0.4s0.2-0.2,0.4-0.2h6.8c0.1,0,0.3,0.1,0.4,0.2c0.1,0.1,0.2,0.2,0.2,0.4v6.8c0,0.1-0.1,0.3-0.2,0.4
	c-0.1,0.1-0.2,0.2-0.4,0.2H58.6z M87.8,62c-0.1,0-0.3-0.1-0.4-0.2c-0.1-0.1-0.2-0.2-0.2-0.4v-6.8c0-0.1,0.1-0.3,0.2-0.4
	c0.1-0.1,0.2-0.2,0.4-0.2h6.8c0.1,0,0.3,0.1,0.4,0.2c0.1,0.1,0.2,0.2,0.2,0.4v6.8c0,0.1-0.1,0.3-0.2,0.4c-0.1,0.1-0.2,0.2-0.4,0.2
	H87.8z M102.4,62c-0.1,0-0.3-0.1-0.4-0.2c-0.1-0.1-0.2-0.2-0.2-0.4v-6.8c0-0.1,0.1-0.3,0.2-0.4c0.1-0.1,0.2-0.2,0.4-0.2h6.8
	c0.1,0,0.3,0.1,0.4,0.2c0.1,0.1,0.2,0.2,0.2,0.4v6.8c0,0.1-0.1,0.3-0.2,0.4c-0.1,0.1-0.2,0.2-0.4,0.2H102.4z M58.6,47.3
	c-0.1,0-0.3-0.1-0.4-0.2S58,47,58,46.8V40c0-0.1,0.1-0.3,0.2-0.4s0.2-0.2,0.4-0.2h6.8c0.1,0,0.3,0.1,0.4,0.2
	c0.1,0.1,0.2,0.2,0.2,0.4v6.8c0,0.1-0.1,0.3-0.2,0.4c-0.1,0.1-0.2,0.2-0.4,0.2H58.6z M87.8,47.3c-0.1,0-0.3-0.1-0.4-0.2
	c-0.1-0.1-0.2-0.2-0.2-0.4V40c0-0.1,0.1-0.3,0.2-0.4c0.1-0.1,0.2-0.2,0.4-0.2h6.8c0.1,0,0.3,0.1,0.4,0.2c0.1,0.1,0.2,0.2,0.2,0.4
	v6.8c0,0.1-0.1,0.3-0.2,0.4c-0.1,0.1-0.2,0.2-0.4,0.2H87.8z M117.1,47.3c-0.1,0-0.3-0.1-0.4-0.2c-0.1-0.1-0.2-0.2-0.2-0.4V40
	c0-0.1,0.1-0.3,0.2-0.4c0.1-0.1,0.2-0.2,0.4-0.2h6.8c0.1,0,0.3,0.1,0.4,0.2c0.1,0.1,0.2,0.2,0.2,0.4v6.8c0,0.1-0.1,0.3-0.2,0.4
	c-0.1,0.1-0.2,0.2-0.4,0.2H117.1z M58.6,32.7c-0.1,0-0.3-0.1-0.4-0.2S58,32.3,58,32.2v-6.8c0-0.2,0.1-0.3,0.2-0.4s0.2-0.2,0.4-0.2
	h6.8c0.1,0,0.3,0.1,0.4,0.2c0.1,0.1,0.2,0.2,0.2,0.4v6.8c0,0.1-0.1,0.3-0.2,0.4c-0.1,0.1-0.2,0.2-0.4,0.2H58.6z M102.4,32.7
	c-0.1,0-0.3-0.1-0.4-0.2c-0.1-0.1-0.2-0.2-0.2-0.4v-6.8c0-0.2,0.1-0.3,0.2-0.4c0.1-0.1,0.2-0.2,0.4-0.2h6.8c0.1,0,0.3,0.1,0.4,0.2
	c0.1,0.1,0.2,0.2,0.2,0.4v6.8c0,0.1-0.1,0.3-0.2,0.4c-0.1,0.1-0.2,0.2-0.4,0.2H102.4z M146.3,32.7c-0.1,0-0.3-0.1-0.4-0.2
	c-0.1-0.1-0.2-0.2-0.2-0.4v-6.8c0-0.2,0.1-0.3,0.2-0.4c0.1-0.1,0.2-0.2,0.4-0.2h6.8c0.1,0,0.3,0.1,0.4,0.2c0.1,0.1,0.2,0.2,0.2,0.4
	v6.8c0,0.1-0.1,0.3-0.2,0.4c-0.1,0.1-0.2,0.2-0.4,0.2H146.3z M58.6,18.1c-0.1,0-0.3-0.1-0.4-0.2c-0.1-0.1-0.2-0.2-0.2-0.4v-6.8
	c0-0.1,0.1-0.3,0.2-0.4s0.2-0.2,0.4-0.2h6.8c0.1,0,0.3,0.1,0.4,0.2c0.1,0.1,0.2,0.2,0.2,0.4v6.8c0,0.1-0.1,0.3-0.2,0.4
	c-0.1,0.1-0.2,0.2-0.4,0.2H58.6z M131.7,18.1c-0.1,0-0.3-0.1-0.4-0.2c-0.1-0.1-0.2-0.2-0.2-0.4v-6.8c0-0.1,0.1-0.3,0.2-0.4
	c0.1-0.1,0.2-0.2,0.4-0.2h6.8c0.1,0,0.3,0.1,0.4,0.2c0.1,0.1,0.2,0.2,0.2,0.4v6.8c0,0.1-0.1,0.3-0.2,0.4c-0.1,0.1-0.2,0.2-0.4,0.2
	H131.7z M146.3,18.1c-0.1,0-0.3-0.1-0.4-0.2c-0.1-0.1-0.2-0.2-0.2-0.4v-6.8c0-0.1,0.1-0.3,0.2-0.4c0.1-0.1,0.2-0.2,0.4-0.2h6.8
	c0.1,0,0.3,0.1,0.4,0.2c0.1,0.1,0.2,0.2,0.2,0.4v6.8c0,0.1-0.1,0.3-0.2,0.4c-0.1,0.1-0.2,0.2-0.4,0.2H146.3z"/>
</svg>
