
<svg xmlns="http://www.w3.org/2000/svg" viewBox="0 0 300.000000 344.000000"
 preserveAspectRatio="xMidYMid meet">
<g transform="translate(0.000000,344.000000) scale(0.100000,-0.100000)"
fill="#737373" stroke="none">
<path d="M1235 3429 c-4 -6 -5 -13 -1 -16 3 -3 -1 -12 -9 -20 -18 -17 -19 -33
-3 -33 6 0 9 3 5 6 -3 4 1 13 9 21 8 9 13 21 10 29 -3 7 0 15 7 18 9 3 9 5 0
5 -6 1 -15 -4 -18 -10z"/>
<path d="M2236 3415 c-9 -14 -21 -23 -26 -20 -8 5 -201 -205 -203 -222 -2 -13
-118 -148 -127 -146 -4 1 -18 -10 -31 -25 -22 -25 -22 -26 -1 -8 12 11 22 15
22 9 0 -12 -31 -42 -43 -41 -5 0 -12 -4 -15 -8 -4 -4 -1 -4 6 0 21 12 13 -4
-24 -50 -20 -24 -31 -42 -23 -39 8 3 34 33 58 66 24 33 46 58 49 55 2 -3 -1
-12 -8 -21 -7 -8 -10 -15 -7 -15 2 0 17 17 33 38 15 20 20 31 11 23 -9 -7 -17
-9 -17 -3 0 12 25 34 32 27 3 -3 11 2 19 12 12 14 12 15 0 9 -9 -6 -12 -4 -9
5 3 8 10 14 16 14 6 0 17 6 24 13 6 6 9 12 6 12 -3 0 10 17 28 38 166 190 254
293 254 297 0 11 -9 4 -24 -20z m-74 -82 c-65 -75 -156 -171 -117 -124 55 67
158 181 162 181 3 0 -18 -26 -45 -57z"/>
<path d="M1140 3198 c-35 -84 -63 -160 -64 -168 -1 -8 -7 -21 -14 -29 -7 -7
-11 -20 -8 -27 3 -8 1 -14 -3 -14 -13 0 -23 -32 -13 -42 10 -10 35 49 27 62
-3 5 -1 10 4 12 4 1 38 77 75 168 37 91 70 171 73 178 3 6 1 12 -5 12 -5 0
-38 -69 -72 -152z"/>
<path d="M1002 2855 c-16 -42 -19 -61 -12 -73 9 -14 10 -12 4 7 -4 17 -3 21 6
16 9 -5 10 -1 5 15 -5 14 -3 20 3 16 13 -8 35 55 24 66 -5 5 -18 -16 -30 -47z"/>
<path d="M2458 2883 c23 -2 61 -2 85 0 23 2 4 4 -43 4 -47 0 -66 -2 -42 -4z"/>
<path d="M2223 2873 c26 -2 68 -2 95 0 26 2 4 3 -48 3 -52 0 -74 -1 -47 -3z"/>
<path d="M2038 2863 c17 -2 47 -2 65 0 17 2 3 4 -33 4 -36 0 -50 -2 -32 -4z"/>
<path d="M1918 2853 c18 -2 45 -2 60 0 15 2 0 4 -33 4 -33 0 -45 -2 -27 -4z"/>
<path d="M1725 2820 c-17 -19 -17 -20 -1 -20 9 0 14 -5 11 -10 -4 -6 -11 -7
-17 -4 -7 5 -8 2 -3 -7 7 -11 6 -12 -6 -3 -8 6 -23 9 -34 6 -11 -3 -62 -7
-112 -9 -77 -4 -92 -2 -88 10 4 8 0 14 -9 14 -8 0 -12 -6 -9 -13 3 -9 -5 -12
-26 -12 -16 1 -42 -7 -56 -16 -38 -25 -41 -13 -5 18 17 14 27 26 22 26 -19 0
-92 -90 -92 -112 1 -22 2 -22 16 4 24 46 81 68 172 68 48 0 83 -5 91 -12 11
-11 12 -10 6 0 -6 11 2 13 34 11 27 -2 45 1 50 10 5 7 10 9 12 4 2 -6 56 -12
119 -15 63 -2 102 -3 87 0 l-28 3 20 19 21 18 -25 4 c-14 3 -28 1 -31 -3 -3
-5 2 -9 11 -9 9 0 13 -4 10 -10 -3 -5 -36 -10 -72 -10 -56 0 -64 2 -53 14 6 8
30 17 53 19 38 3 37 4 -12 5 -46 2 -52 4 -41 17 19 22 6 18 -15 -5z"/>
<path d="M2218 2793 c17 -2 47 -2 65 0 17 2 3 4 -33 4 -36 0 -50 -2 -32 -4z"/>
<path d="M1910 2780 c0 -5 9 -11 20 -11 11 -1 25 -3 30 -4 6 -1 14 -3 19 -4
19 -2 71 -53 71 -69 0 -14 -4 -13 -18 5 -17 22 -80 54 -104 52 -7 0 5 -7 27
-15 22 -8 51 -26 65 -39 31 -30 40 -31 40 -7 0 26 -36 61 -84 83 -46 21 -66
24 -66 9z"/>
<path d="M942 2702 c-6 -17 -8 -41 -5 -54 3 -16 2 -19 -5 -10 -7 11 -11 10
-16 -4 -3 -9 -4 -19 -1 -22 3 -3 5 1 5 9 0 12 2 12 9 1 11 -19 31 38 24 70 -4
18 -3 20 6 8 13 -18 15 -1 2 18 -6 10 -11 6 -19 -16z"/>
<path d="M1620 2724 c0 -16 108 -96 115 -85 3 5 1 12 -5 16 -5 3 -10 3 -10 -1
0 -4 -11 3 -25 16 -17 16 -22 27 -15 35 7 9 3 11 -18 10 -15 -1 -30 3 -34 9
-5 8 -8 8 -8 0z"/>
<path d="M2356 2614 c-4 -49 -9 -101 -11 -116 -3 -16 -1 -28 4 -28 4 0 9 24
10 54 1 30 6 78 11 108 4 29 5 57 0 62 -4 4 -11 -32 -14 -80z"/>
<path d="M1614 2678 c-11 -17 -12 -48 -3 -53 3 -3 13 3 20 12 12 14 12 16 0 9
-9 -6 -12 -5 -9 5 3 8 11 13 18 11 11 -3 11 0 0 12 -15 19 -17 19 -26 4z"/>
<path d="M1746 2631 c-3 -5 2 -15 11 -22 11 -9 14 -10 9 -2 -5 10 1 11 26 7
18 -3 39 -8 46 -10 7 -2 10 1 7 6 -3 6 -17 10 -31 10 -14 0 -34 5 -44 10 -11
6 -21 6 -24 1z"/>
<path d="M1544 2546 c-10 -8 -19 -18 -19 -23 0 -9 -16 -30 -50 -66 -12 -12
-43 -53 -70 -92 -106 -150 -210 -278 -213 -262 -2 10 -8 17 -13 17 -6 0 -8 -4
-5 -9 4 -5 3 -11 -2 -13 -4 -1 -25 -28 -46 -58 -38 -55 -24 -44 25 21 15 19
30 31 33 28 9 -9 -82 -119 -96 -116 -5 1 -38 -37 -72 -85 -33 -48 -105 -146
-158 -218 -54 -71 -94 -130 -89 -130 5 0 42 45 83 100 40 56 94 129 119 163
26 35 53 76 62 92 22 40 61 86 53 63 -11 -36 11 -16 65 56 44 60 58 74 78 71
38 -3 41 -64 6 -109 -14 -19 -15 -19 -35 -1 -18 16 -20 16 -20 2 0 -10 3 -16
8 -16 23 4 23 -4 -1 -29 -16 -17 -27 -42 -30 -67 -2 -22 -2 -29 1 -15 4 23 5
24 12 5 8 -18 9 -18 10 5 2 14 2 31 1 38 -1 6 4 12 10 12 7 0 9 3 6 7 -7 7 11
33 23 33 16 0 18 -39 2 -45 -8 -3 -13 -8 -10 -10 3 -3 18 1 34 10 16 8 23 15
16 15 -7 0 -10 5 -6 12 4 7 3 8 -4 4 -17 -11 -14 35 3 58 14 19 15 19 15 -7 0
-23 2 -26 14 -15 9 9 10 15 3 20 -6 3 -12 26 -13 49 -1 24 -7 45 -13 47 -6 2
-11 8 -11 13 0 6 4 8 8 5 5 -3 9 1 9 9 0 13 -4 12 -19 -2 -48 -44 -14 9 128
194 86 111 155 205 154 208 0 3 9 15 22 25 27 22 21 27 -8 6z"/>
<path d="M2556 2489 c-9 -29 -16 -62 -15 -73 0 -12 9 10 19 49 22 82 18 101
-4 24z"/>
<path d="M1760 2481 c0 -7 -4 -10 -10 -6 -5 3 -4 -8 2 -27 15 -45 22 -50 13
-10 -4 21 -3 32 5 32 6 0 8 -4 5 -10 -3 -5 -1 -10 4 -10 16 0 13 16 -4 30 -11
9 -15 9 -15 1z"/>
<path d="M1437 2449 c-14 -19 -17 -19 -53 -5 -36 15 -32 8 10 -19 13 -9 7 -20
-40 -80 -30 -38 -64 -83 -76 -100 l-20 -30 28 31 c16 17 38 43 49 59 11 15 40
53 64 84 63 80 64 81 58 81 -3 0 -12 -9 -20 -21z"/>
<path d="M1800 2424 c0 -8 -4 -12 -10 -9 -5 3 -10 3 -11 -2 0 -4 -2 -28 -4
-53 -6 -70 7 -70 21 0 8 35 19 67 26 72 10 6 8 8 -4 8 -10 0 -18 -7 -18 -16z"/>
<path d="M1893 2378 c7 -4 30 -8 53 -8 23 0 55 -5 72 -11 23 -8 36 -8 49 1 15
10 14 10 -10 5 -19 -4 -26 -2 -22 5 4 6 -7 10 -27 11 -18 0 -54 1 -80 2 -26 2
-42 -1 -35 -5z"/>
<path d="M2522 2353 c-6 -21 -8 -41 -3 -46 4 -4 11 11 14 35 7 54 3 58 -11 11z"/>
<path d="M2081 2351 c-9 -6 24 -17 102 -35 67 -16 149 -43 195 -65 52 -26 79
-34 79 -25 0 12 -170 75 -347 130 -8 2 -21 0 -29 -5z"/>
<path d="M1612 2311 c-9 -5 -12 -27 -10 -72 l3 -64 45 -3 c81 -5 85 -1 85 68
0 43 -5 64 -15 70 -18 12 -90 13 -108 1z m24 -27 c-3 -8 1 -26 9 -41 10 -18
15 -22 15 -11 0 9 -5 20 -11 23 -7 5 -4 14 7 26 16 17 19 18 27 4 14 -26 17
-58 6 -72 -16 -18 -69 -17 -69 2 0 8 4 15 9 15 6 0 3 12 -5 28 -18 34 -18 39
1 39 9 0 14 -6 11 -13z"/>
<path d="M1537 2253 c-6 -53 8 -102 24 -86 13 13 7 125 -7 130 -7 2 -13 -15
-17 -44z m20 -55 c-2 -18 -4 -4 -4 32 0 36 2 50 4 33 2 -18 2 -48 0 -65z"/>
<path d="M1152 2260 c2 -8 -1 -14 -7 -13 -5 1 -11 -9 -11 -22 -1 -15 3 -22 11
-19 18 7 27 46 14 59 -7 7 -9 5 -7 -5z"/>
<path d="M1760 2257 c3 -3 87 -8 188 -11 101 -3 194 -9 207 -12 16 -4 24 -15
28 -37 4 -18 9 -42 13 -54 6 -22 5 -22 -25 -12 -21 7 -39 8 -58 1 l-28 -10 35
-1 c109 -3 230 -65 230 -118 0 -16 4 -22 12 -17 8 5 9 2 5 -11 -4 -9 -3 -23 3
-30 8 -10 -11 -12 -87 -9 l-98 3 88 -9 c49 -5 95 -11 103 -14 8 -3 14 0 14 7
0 28 -31 115 -45 127 -8 7 -16 31 -17 54 -1 38 -2 38 -5 8 -4 -27 -8 -32 -21
-27 -9 4 -30 12 -47 17 -42 15 -50 25 -35 43 11 13 10 14 -3 9 -13 -5 -18 3
-23 36 -5 32 -12 44 -33 52 -27 10 -410 25 -401 15z"/>
<path d="M2522 2163 c-6 -2 -10 -9 -7 -14 3 -4 -3 -26 -15 -48 -11 -22 -20
-44 -20 -48 1 -4 12 12 25 37 18 35 25 41 30 28 4 -11 -1 -28 -14 -44 -12 -15
-21 -32 -21 -38 0 -6 11 6 25 26 14 21 34 42 45 48 12 6 18 16 14 22 -4 7 -9
6 -14 -3 -7 -10 -12 -10 -25 1 -9 7 -14 19 -11 27 3 7 4 13 3 12 -1 0 -8 -3
-15 -6z"/>
<path d="M1373 2133 c-15 -16 -18 -23 -8 -23 9 0 13 -10 11 -32 -2 -18 -1 -23
1 -10 6 30 29 28 35 -3 3 -14 2 -25 -1 -25 -4 0 -16 -7 -27 -15 -19 -15 -19
-15 1 -8 11 3 25 10 31 15 6 4 38 19 70 33 33 13 54 24 47 25 -6 0 -32 -9 -58
-20 -57 -24 -55 -24 -55 -1 0 10 -10 25 -22 34 -13 8 -19 19 -15 23 4 5 12 3
16 -5 7 -10 9 -10 13 1 11 27 -16 34 -39 11z"/>
<path d="M1750 2138 c0 -10 -7 -18 -15 -18 -17 0 -97 -31 -92 -36 1 -2 32 6
68 17 48 16 101 22 214 26 83 3 154 9 159 13 9 9 -217 4 -278 -6 -27 -4 -41
-2 -47 7 -7 11 -9 10 -9 -3z"/>
<path d="M1748 2069 c-10 -5 -18 -16 -18 -24 0 -12 5 -12 33 0 36 15 377 19
377 5 0 -5 13 -7 28 -5 17 2 29 -2 30 -8 0 -7 4 -23 8 -36 6 -20 4 -23 -9 -18
-10 4 -17 3 -17 -1 0 -11 -356 -13 -384 -2 -14 5 -27 18 -31 30 -4 12 -12 19
-18 17 -19 -6 -19 -32 0 -54 16 -18 34 -22 146 -27 77 -4 126 -3 123 3 -4 5 8
6 27 1 41 -9 164 5 184 22 18 14 10 63 -14 90 -15 16 -36 18 -232 18 -128 0
-223 -5 -233 -11z"/>
<path d="M1311 2018 c2 -49 2 -50 8 -16 6 37 21 41 34 8 3 -8 5 -3 4 11 -1 17
-6 25 -14 22 -7 -3 -13 2 -13 11 0 9 -4 16 -10 16 -6 0 -9 -23 -9 -52z"/>
<path d="M1442 2027 c-40 -17 -93 -48 -117 -67 -38 -30 -45 -42 -52 -85 -4
-27 -6 -53 -5 -57 1 -4 -9 -10 -23 -14 -14 -3 -23 -10 -20 -14 4 -6 -47 -56
-164 -158 -18 -16 -20 -20 -6 -13 11 5 31 21 45 36 l25 27 6 -44 c4 -23 3 -50
-1 -58 -11 -21 -96 -81 -104 -73 -3 3 -6 -1 -6 -9 0 -13 -21 -30 -40 -32 -3 0
-25 -20 -50 -45 -41 -41 -42 -42 -9 -18 20 14 39 24 41 22 2 -3 1 -28 -3 -57
-9 -63 -11 -113 -4 -107 2 3 7 27 10 55 12 117 16 134 36 145 19 10 20 7 17
-118 -3 -122 -2 -128 17 -129 18 -1 18 -1 1 3 -17 4 -18 12 -12 80 3 42 6 101
6 132 0 51 3 58 31 76 16 11 35 19 40 17 6 -1 8 2 5 7 -8 12 12 26 22 16 4 -4
10 -52 13 -108 l5 -102 2 121 c2 101 5 123 18 128 9 3 16 6 17 6 7 0 0 -299
-7 -312 -11 -23 -42 -23 -48 0 -2 9 -4 33 -3 54 0 20 -3 34 -7 31 -5 -2 -8
-29 -8 -59 0 -53 0 -54 29 -54 17 0 33 5 36 10 3 6 21 10 38 10 62 0 61 -3 71
261 7 171 6 246 -1 258 -14 23 -7 32 48 57 l45 22 -4 -59 c-6 -78 2 -105 33
-113 14 -4 25 -13 25 -22 0 -8 -4 -12 -10 -9 -18 11 -16 -506 3 -569 7 -26 20
-42 36 -50 25 -11 26 -14 30 -121 3 -107 11 -140 26 -114 5 8 4 10 -3 5 -9 -5
-12 25 -12 112 0 119 0 120 -25 126 -16 4 -25 13 -25 26 0 11 -5 20 -11 20 -6
0 -8 8 -4 19 3 11 1 22 -5 26 -15 9 -13 68 3 59 10 -6 10 -4 0 7 -16 16 -17
33 -2 23 8 -5 8 -1 0 13 -5 11 -8 42 -6 69 5 58 9 215 5 229 -5 22 1 46 10 40
15 -9 12 2 -6 19 -14 15 -14 16 0 16 9 0 16 5 16 10 0 6 -4 9 -9 8 -5 -2 -9 2
-9 7 0 6 4 9 9 8 5 -2 8 7 6 18 -1 15 4 23 18 25 19 3 20 -2 20 -149 -1 -84 2
-174 6 -202 3 -29 7 38 9 160 1 116 3 243 3 283 2 86 -6 95 -73 87 -45 -5 -45
-5 -17 10 16 9 27 25 28 38 0 14 2 16 6 7 2 -8 7 -22 10 -30 4 -13 6 -13 16 0
7 8 18 16 25 18 22 4 72 45 66 54 -3 4 7 9 23 9 25 2 25 2 5 6 -26 5 -93 -36
-118 -71 -12 -17 -14 -18 -14 -4 0 25 22 68 31 63 4 -3 15 5 24 17 8 13 18 22
20 21 12 -6 26 -2 21 6 -6 8 64 -2 97 -14 9 -4 17 -18 17 -31 0 -17 6 -24 20
-24 13 0 20 6 19 18 0 10 -3 12 -6 5 -9 -24 -22 -13 -25 23 l-3 36 -63 5 c-61
4 -64 3 -111 -34 -26 -21 -46 -44 -43 -51 2 -7 -2 -11 -9 -10 -8 2 -15 -6 -17
-17 -2 -14 -24 -30 -72 -52 l-70 -31 0 26 c0 55 33 88 142 142 115 56 121 67
10 17z m51 -215 c12 -73 4 -98 -33 -105 -16 -4 -40 -3 -53 2 -21 8 -23 15 -22
77 0 63 2 69 22 72 17 3 22 -3 26 -25 4 -26 4 -26 6 5 1 29 4 33 23 30 19 -2
24 -12 31 -56z m-219 -78 c-2 -50 -5 -58 -35 -80 -18 -13 -34 -24 -36 -24 -2
0 0 25 3 57 6 47 5 55 -7 48 -8 -5 -11 -5 -7 -1 3 4 9 7 12 7 3 0 17 11 30 24
14 14 29 25 33 25 4 0 7 -25 7 -56z m-82 -69 c-3 -42 -8 -58 -23 -65 -17 -10
-19 -7 -19 36 0 43 19 84 39 84 3 0 4 -25 3 -55z m84 -22 c-2 -10 -8 -90 -11
-178 -5 -130 -10 -162 -23 -172 -33 -27 -40 -16 -38 65 1 58 4 76 14 74 8 -1
11 2 7 8 -3 6 -11 8 -16 5 -5 -4 -9 27 -9 75 0 78 1 81 33 110 37 34 51 38 43
13z"/>
<path d="M2460 2010 c-7 -17 -15 -28 -18 -25 -6 6 -51 -149 -51 -175 0 -14 9
7 44 100 7 19 21 54 30 78 10 23 16 45 13 47 -3 3 -11 -8 -18 -25z"/>
<path d="M1590 1957 c0 -8 -9 -22 -20 -32 -20 -18 -27 -59 -11 -69 4 -3 -1
-31 -11 -63 -17 -48 -19 -79 -16 -193 3 -120 6 -141 28 -185 43 -86 41 -86
433 -83 l339 3 29 33 c38 42 37 73 -2 227 -61 240 -90 255 -481 248 l-236 -4
-6 37 -7 36 -30 -28 c-32 -30 -45 -27 -35 8 10 37 45 73 58 60 6 -6 17 -8 25
-5 12 5 12 7 1 14 -21 13 -58 10 -58 -4z m40 -102 c0 -21 5 -25 33 -26 26 0
28 -2 12 -8 -11 -5 -25 -7 -30 -4 -6 2 -26 -12 -44 -31 -32 -33 -35 -41 -45
-138 l-11 -103 -3 94 c-4 117 17 197 53 211 14 5 25 12 25 15 0 4 -5 3 -12 -1
-7 -4 -8 -3 -4 4 12 20 26 13 26 -13z m603 -49 c51 -25 100 -115 112 -206 1
-8 9 -39 18 -69 23 -74 23 -112 0 -105 -14 5 -15 4 -4 -4 21 -15 3 -52 -34
-68 -23 -9 -79 -13 -193 -13 l-159 0 -6 52 c-4 29 -10 91 -13 140 -6 77 -5 90
12 110 10 12 12 16 4 10 -21 -19 -30 -16 -30 9 0 12 -2 19 -5 16 -5 -5 11
-252 20 -305 l6 -33 -143 0 c-171 0 -212 9 -238 53 -11 18 -20 37 -20 42 1 6
10 -7 21 -27 22 -42 27 -46 25 -20 0 9 2 17 6 17 10 0 37 38 38 52 0 6 5 24
12 40 6 15 10 34 9 42 -1 7 2 10 8 6 7 -3 10 1 9 12 -3 44 1 51 35 48 17 -1
55 5 82 14 l50 16 0 58 0 58 38 11 c31 9 43 9 60 -2 27 -17 89 -31 81 -19 -3
5 -16 9 -29 9 -13 0 -30 9 -38 20 -16 23 -50 23 -92 0 -26 -15 -30 -22 -27
-51 6 -63 -9 -83 -72 -96 -31 -7 -64 -9 -72 -6 -10 4 -17 -2 -21 -18 -6 -22
-7 -22 -15 -3 -7 17 -8 16 -4 -3 2 -13 1 -23 -3 -23 -12 0 -42 -107 -34 -125
4 -12 3 -16 -4 -12 -6 4 -14 0 -17 -9 -8 -20 -26 -9 -26 16 0 13 -5 17 -15 14
-11 -4 -15 1 -15 17 0 13 -3 35 -5 49 -5 22 -4 22 4 5 7 -16 10 -8 10 33 1 31
5 51 11 47 5 -3 8 19 5 56 -2 34 1 72 7 83 15 30 50 66 62 66 6 0 3 -5 -7 -11
-21 -12 -60 -86 -52 -99 3 -6 16 -5 31 0 46 18 53 13 57 -37 l3 -48 2 48 c2
55 -13 67 -59 50 -35 -14 -36 -8 -4 39 25 37 41 45 140 68 22 5 130 8 240 7
171 -2 205 -5 238 -21z"/>
<path d="M2124 1729 c22 -5 45 -14 52 -20 6 -5 16 -9 20 -8 20 3 35 -2 29 -10
-3 -5 0 -13 6 -17 8 -4 9 -3 5 4 -4 7 -3 12 1 12 14 0 74 -65 68 -73 -3 -4 -2
-5 2 -2 3 3 12 -3 19 -13 7 -9 14 -12 14 -7 0 18 -61 85 -92 101 -40 21 -118
44 -143 43 -11 -1 -2 -5 19 -10z"/>
<path d="M2115 1586 c-12 -13 -12 -73 -1 -98 5 -11 4 -18 -3 -18 -7 0 -11 -19
-11 -47 1 -44 2 -47 15 -29 8 11 15 25 15 30 0 6 -5 4 -10 -4 -8 -12 -10 -9
-10 12 0 15 5 30 10 33 13 8 13 42 0 47 -6 2 -6 16 1 41 11 42 10 51 -6 33z"/>
<path d="M2213 1485 c0 -33 2 -45 4 -27 2 18 2 45 0 60 -2 15 -4 0 -4 -33z"/>
<path d="M2276 1486 c15 -22 24 -41 18 -43 -67 -25 -138 -61 -142 -71 -3 -11
0 -12 16 -3 27 15 30 14 35 -6 3 -13 5 -12 6 5 1 18 13 29 57 48 30 13 58 22
62 20 4 -2 13 3 21 12 13 13 12 14 -11 9 -22 -6 -32 -1 -58 31 l-32 37 28 -39z"/>
<path d="M1918 1913 c29 -2 74 -2 100 0 26 2 2 3 -53 3 -55 0 -76 -1 -47 -3z"/>
<path d="M2221 1907 c36 -7 77 -20 92 -30 29 -19 51 -53 42 -66 -3 -5 0 -11 6
-13 6 -2 12 -32 14 -67 7 -116 15 -206 21 -231 4 -14 9 -74 11 -134 l5 -109
-23 6 c-99 24 -837 43 -858 22 -8 -8 13 -8 67 -3 107 12 670 -9 780 -29 l33
-5 -2 -223 -2 -222 -41 3 c-56 3 -58 6 -11 13 36 5 -48 6 -555 2 -91 -1 -130
-4 -120 -11 13 -8 12 -10 -3 -10 -10 0 -15 -5 -12 -11 5 -7 13 -5 24 5 10 9
36 16 61 16 l43 0 -19 -22 -19 -23 25 22 c24 21 32 22 283 22 198 0 258 -3
254 -12 -3 -8 9 -11 42 -10 25 2 40 0 33 -3 -6 -3 -10 -10 -6 -15 3 -5 -4 -9
-16 -9 -12 0 -19 -4 -15 -9 3 -5 -3 -12 -12 -14 -16 -4 -16 -5 -1 -6 9 0 31
11 48 26 l31 26 -3 -34 -3 -34 -60 -2 c-74 -1 -208 -14 -214 -19 -3 -3 60 -1
139 2 l143 7 -6 -24 c-4 -13 -7 -32 -7 -41 0 -10 -8 -18 -17 -18 -17 -1 -17
-2 0 -14 31 -24 -12 -35 -83 -22 -22 4 -28 3 -16 -2 15 -7 11 -10 -23 -22 -22
-7 -41 -17 -41 -22 0 -10 15 -10 63 1 21 5 39 5 42 0 3 -4 18 -6 33 -3 18 3
44 -5 82 -26 99 -55 435 -222 425 -211 -6 6 -88 49 -184 96 -178 88 -221 118
-92 64 40 -17 74 -29 76 -27 2 2 -34 20 -80 39 -47 20 -82 32 -79 28 8 -13 -1
-11 -41 8 -21 10 -34 22 -31 30 4 9 -5 13 -31 13 -33 0 -35 1 -19 13 24 17 43
127 34 197 -3 30 -6 195 -7 366 0 171 -5 340 -11 376 -5 36 -10 76 -11 89 0
13 -2 57 -5 97 -5 61 -3 72 10 72 9 0 16 8 16 19 0 11 6 22 13 24 9 4 9 6 -1
6 -7 1 -17 -9 -22 -21 -5 -13 -9 -18 -10 -13 0 6 -5 3 -10 -5 -8 -12 -10 -9
-10 12 0 40 -36 94 -76 113 -20 9 -61 18 -92 21 l-57 4 66 -13z"/>
<path d="M1186 1834 c-36 -41 -64 -51 -52 -17 4 8 1 11 -5 7 -6 -3 -8 -16 -5
-29 5 -18 -16 -43 -119 -144 -92 -91 -126 -131 -131 -154 -6 -31 -20 -44 -101
-98 -18 -11 -33 -27 -33 -34 0 -14 28 6 74 51 11 12 31 26 42 32 13 7 26 28
32 49 8 30 10 33 11 13 0 -14 -6 -37 -13 -52 -8 -16 -12 -28 -8 -28 13 0 67
49 55 50 -7 0 -13 -5 -13 -12 0 -6 -3 -8 -6 -5 -4 4 -7 25 -8 47 -1 29 3 39
12 35 7 -2 63 45 125 106 62 61 106 108 100 104 -18 -9 -16 10 2 25 12 10 15
10 15 -1 0 -20 31 13 34 36 2 11 8 21 14 23 8 2 10 -3 5 -14 -4 -11 -3 -15 4
-11 11 7 24 68 14 66 -3 0 -23 -21 -45 -45z m-121 -155 c-39 -39 -88 -85 -110
-102 -22 -17 7 15 65 71 58 55 107 101 110 102 2 0 -27 -32 -65 -71z"/>
<path d="M2451 1816 c2 -2 33 -6 69 -10 44 -4 60 -3 50 4 -14 9 -129 15 -119
6z"/>
<path d="M1324 1712 c-15 -9 -32 -178 -32 -317 -1 -60 -1 -115 -1 -122 -1 -7
-31 -21 -68 -32 -57 -17 -264 -76 -392 -113 -19 -5 -29 -13 -24 -16 6 -4 13
-21 16 -37 4 -28 4 -28 6 6 l1 36 139 40 c103 30 143 37 152 29 9 -8 10 -8 5
1 -4 8 6 14 31 19 21 4 49 11 63 17 29 12 34 13 80 22 39 7 52 15 25 15 -17 0
-18 11 -12 216 3 131 10 221 16 227 13 13 13 11 11 -88 0 -50 2 -66 10 -55 5
8 10 10 10 5 0 -6 -4 -15 -9 -20 -5 -6 -12 -68 -15 -140 -4 -122 -4 -125 6
-55 6 41 14 77 17 80 9 8 14 178 6 237 -6 51 -16 62 -41 45z"/>
<path d="M1045 1590 c-3 -5 -11 -7 -18 -4 -7 2 -33 -17 -57 -43 l-45 -47 49
44 c40 35 51 41 55 27 5 -13 8 -12 18 8 11 24 10 34 -2 15z"/>
<path d="M351 1520 c-1 -23 32 -90 44 -90 3 0 -2 11 -11 25 -9 14 -20 40 -24
58 -7 27 -8 28 -9 7z"/>
<path d="M1064 1335 c0 -49 1 -71 3 -48 2 23 2 64 0 90 -2 26 -3 8 -3 -42z"/>
<path d="M450 1369 c60 -10 108 -9 55 2 -22 4 -53 8 -70 7 -22 0 -19 -3 15 -9z"/>
<path d="M1358 1350 c-4 -14 -7 -41 -7 -60 l1 -35 9 34 c6 18 9 45 7 60 l-3
26 -7 -25z"/>
<path d="M1375 1168 c-4 -106 -5 -257 -3 -336 3 -136 2 -142 -17 -143 -22 -1
27 -13 90 -23 28 -4 34 -3 20 4 -11 5 -31 9 -45 9 l-26 1 -1 158 c-1 86 -1
239 -2 340 0 100 -2 182 -5 182 -2 0 -7 -87 -11 -192z"/>
<path d="M904 1342 c-13 -8 -26 -94 -13 -86 5 3 9 22 9 42 0 27 3 33 10 22 7
-12 9 -10 7 8 0 12 -1 22 -2 22 0 0 -5 -4 -11 -8z"/>
<path d="M864 1255 c0 -49 1 -71 3 -48 2 23 2 64 0 90 -2 26 -3 8 -3 -42z"/>
<path d="M588 1323 c12 -2 19 -9 16 -15 -4 -7 0 -7 12 0 11 5 26 12 34 15 8 3
-7 5 -35 5 -27 0 -40 -3 -27 -5z"/>
<path d="M2485 1312 c17 -2 34 -8 39 -13 6 -5 1 -7 -12 -4 -15 2 -22 -1 -22
-11 0 -8 3 -14 8 -12 4 2 18 9 32 16 14 7 50 16 80 21 48 7 43 8 -50 7 -58 0
-91 -2 -75 -4z"/>
<path d="M2655 1300 c-34 -6 -29 -7 33 -9 47 0 71 3 67 9 -7 11 -39 11 -100 0z"/>
<path d="M783 1278 c-6 -7 -8 -22 -6 -33 2 -11 4 -28 4 -39 0 -37 12 -5 15 39
3 48 2 52 -13 33z"/>
<path d="M711 1069 c-13 -231 -14 -230 45 -249 18 -6 33 -16 31 -21 -1 -6 43
-30 98 -55 156 -69 407 -203 420 -224 3 -6 13 -10 21 -10 24 0 5 21 -32 36
-19 8 -34 21 -34 30 0 11 -6 14 -21 9 -13 -4 -19 -3 -16 2 4 6 -26 26 -66 45
-40 19 -73 39 -74 46 -2 6 4 9 12 6 8 -4 15 -9 15 -13 0 -4 26 -18 58 -31 50
-20 120 -51 189 -83 13 -6 26 -8 29 -4 4 3 -11 14 -32 24 -22 10 -40 21 -42
26 -2 4 -8 7 -13 7 -4 0 -32 11 -61 24 -95 43 -181 76 -186 71 -3 -3 1 -5 8
-5 7 0 11 -2 8 -5 -8 -8 -39 6 -33 15 3 4 -24 20 -60 34 -72 29 -79 30 -70 16
3 -6 -1 -7 -9 -4 -9 3 -14 9 -11 13 2 4 -33 23 -78 41 -45 19 -86 39 -90 44
-4 6 -6 43 -3 81 3 39 8 120 11 180 4 61 8 120 11 132 2 12 0 24 -4 27 -5 3
-14 -90 -21 -205z"/>
<path d="M1303 1160 c0 -41 2 -58 4 -37 2 20 2 54 0 75 -2 20 -4 3 -4 -38z"/>
<path d="M1333 1150 c0 -47 2 -66 4 -42 2 23 2 61 0 85 -2 23 -4 4 -4 -43z"/>
<path d="M1250 1189 c0 -17 4 -28 9 -25 5 4 9 -14 9 -39 -1 -31 -6 -45 -17
-48 -14 -4 -14 -5 1 -6 13 -1 18 -13 21 -48 2 -27 4 5 4 69 1 91 -2 118 -13
122 -10 4 -14 -3 -14 -25z"/>
<path d="M473 1151 c-1 -35 1 -40 7 -21 8 26 14 19 23 -25 3 -11 3 -1 1 23 -2
24 -10 49 -17 56 -10 11 -13 5 -14 -33z"/>
<path d="M1060 1113 c-1 -32 -3 -123 -5 -203 -3 -80 -1 -136 4 -125 8 22 15
385 6 385 -3 0 -5 -26 -5 -57z"/>
<path d="M2554 1045 c0 -71 1 -99 3 -62 2 37 2 96 0 130 -2 34 -3 4 -3 -68z"/>
<path d="M765 1140 c-3 -5 -3 -15 0 -20 3 -6 0 -12 -7 -15 -7 -3 -14 -16 -14
-30 -1 -14 2 -22 7 -19 5 3 9 14 9 25 0 10 6 19 13 19 6 0 13 11 13 25 2 25
-10 33 -21 15z"/>
<path d="M1115 1100 c5 -54 15 -65 15 -17 0 21 0 40 1 44 0 4 -4 9 -10 11 -6
2 -8 -13 -6 -38z"/>
<path d="M1962 1047 c-49 -52 -42 -130 14 -156 41 -18 64 -13 100 23 26 26 34
43 34 69 0 75 -98 117 -148 64z m113 -12 c30 -29 32 -59 6 -101 -22 -36 -58
-49 -95 -34 -34 13 -50 49 -42 94 12 65 85 88 131 41z"/>
<path d="M1981 1031 c-45 -35 -26 -111 28 -111 32 0 44 8 60 37 16 31 14 41
-14 68 -29 30 -42 31 -74 6z m80 -27 c11 -31 -11 -68 -43 -72 -47 -6 -73 63
-34 91 21 14 69 3 77 -19z"/>
<path d="M512 1029 c-1 -20 5 -50 13 -65 14 -27 15 -27 15 -6 0 12 -4 22 -9
22 -6 0 -12 19 -14 43 -3 41 -4 41 -5 6z"/>
<path d="M1103 1000 c0 -36 2 -50 4 -32 2 17 2 47 0 65 -2 17 -4 3 -4 -33z"/>
<path d="M790 935 c0 -54 2 -96 5 -94 7 8 8 179 1 186 -3 4 -6 -38 -6 -92z"/>
<path d="M1215 910 c0 -55 4 -99 8 -97 5 1 8 6 8 10 -1 4 -1 48 -1 97 0 50 -3
90 -7 90 -5 0 -8 -45 -8 -100z"/>
<path d="M990 893 c0 -60 5 -115 10 -123 7 -10 10 25 10 108 0 75 -4 122 -10
122 -6 0 -10 -42 -10 -107z"/>
<path d="M954 880 c0 -63 1 -89 3 -57 2 31 2 83 0 115 -2 31 -3 5 -3 -58z"/>
<path d="M1263 895 c0 -38 2 -53 4 -32 2 20 2 52 0 70 -2 17 -4 1 -4 -38z"/>
<path d="M2503 880 c-13 -5 -23 -11 -23 -14 0 -2 75 -5 167 -5 92 -1 165 1
162 3 -3 3 -64 6 -137 7 -75 0 -130 5 -126 10 7 11 -14 11 -43 -1z"/>
<path d="M580 847 c0 -3 24 -25 53 -48 28 -24 46 -36 38 -26 -16 20 -91 81
-91 74z"/>
<path d="M1600 817 c-8 -7 -26 -26 -40 -42 l-25 -30 25 20 c37 29 72 65 63 65
-4 0 -15 -6 -23 -13z"/>
<path d="M1088 780 c-2 -22 0 -47 4 -57 4 -10 7 6 7 40 1 66 -5 76 -11 17z"/>
<path d="M1230 750 c0 -29 3 -50 7 -46 7 7 5 87 -3 95 -2 2 -4 -20 -4 -49z"/>
<path d="M1487 740 c6 -68 22 -127 22 -85 0 11 -4 39 -8 63 -6 32 -5 42 3 39
7 -3 13 4 13 14 1 10 -2 19 -8 19 -5 0 -9 -6 -10 -12 0 -7 -4 -4 -9 7 -6 13
-7 -3 -3 -45z"/>
<path d="M394 743 c5 -9 1 -13 -11 -13 -22 0 -96 -20 -91 -25 1 -2 26 2 55 8
50 12 63 21 47 35 -4 4 -4 1 0 -5z"/>
<path d="M450 740 c-28 -5 -20 -7 43 -11 42 -2 77 -1 77 4 0 4 -13 7 -29 7
-16 0 -35 2 -43 4 -7 2 -29 0 -48 -4z"/>
<path d="M735 716 c22 -20 76 -64 120 -98 120 -92 257 -202 377 -304 108 -91
298 -230 373 -274 66 -38 28 -8 -100 78 -66 45 -185 136 -265 203 -227 189
-598 479 -505 395z"/>
<path d="M1985 720 c-17 -18 -17 -20 -2 -14 10 3 17 1 17 -5 0 -7 17 -10 43
-10 l42 2 -40 7 c-38 7 -32 14 10 11 13 -1 7 4 -14 14 -41 18 -34 19 -56 -5z"/>
<path d="M1270 708 c0 -10 5 -18 11 -18 5 0 8 4 4 9 -3 5 9 11 27 13 l33 3
-37 6 c-32 4 -38 2 -38 -13z"/>
<path d="M1572 714 c-7 -8 -22 -14 -34 -14 -12 0 -19 -3 -16 -6 4 -3 101 -5
217 -4 196 1 211 -1 212 -17 0 -11 3 -13 6 -5 2 6 12 12 21 13 11 0 9 4 -8 11
-14 6 -47 10 -74 9 -32 -2 -52 2 -57 11 -7 10 -9 10 -9 1 0 -9 -22 -13 -75
-13 -46 0 -75 4 -75 11 0 6 -9 8 -21 4 -14 -5 -25 -2 -30 6 -6 10 -9 11 -9 2
0 -15 -27 -18 -32 -4 -1 5 -9 3 -16 -5z"/>
<path d="M661 660 c47 -58 117 -136 239 -265 85 -90 149 -163 150 -170 0 -3 3
-5 8 -5 4 0 41 -33 82 -73 41 -40 89 -84 105 -97 17 -14 -37 43 -120 125 -135
135 -284 292 -449 475 -51 57 -53 58 -15 10z"/>
<path d="M924 699 c-4 -7 -3 -9 4 -5 6 3 13 2 17 -3 3 -5 30 -21 61 -35 30
-14 67 -34 82 -44 70 -48 99 -62 99 -47 0 8 -5 11 -10 8 -5 -3 -12 -1 -16 4
-3 5 -42 29 -86 53 -44 23 -94 51 -112 62 -23 14 -33 16 -39 7z"/>
<path d="M1755 639 c-104 -3 -192 -6 -195 -7 -3 -1 2 -7 10 -12 12 -8 9 -10
-12 -10 -14 0 -29 6 -31 13 -3 7 -6 5 -6 -5 -1 -15 -11 -18 -63 -18 -35 0 -70
-5 -78 -11 -13 -10 -13 -10 0 -6 8 2 40 1 70 -3 31 -4 58 -3 61 2 3 5 23 11
45 14 21 3 41 9 44 14 6 10 293 17 535 12 83 -1 177 2 210 7 55 9 51 9 -40 6
-55 -3 -158 -1 -230 3 -71 4 -215 4 -320 1z"/>
<path d="M960 636 c0 -3 125 -94 278 -203 152 -108 330 -238 396 -287 131
-101 177 -132 131 -91 -56 49 -219 170 -465 345 -135 95 -266 188 -292 207
-27 19 -48 32 -48 29z"/>
<path d="M2495 623 c22 -8 45 -16 52 -17 7 -1 16 -5 19 -9 10 -10 24 -9 24 1
0 5 -27 16 -60 25 -73 21 -89 21 -35 0z"/>
<path d="M2220 590 c-8 -6 -72 -10 -142 -10 -71 0 -128 -3 -128 -7 0 -14 268
-9 282 5 15 15 7 24 -12 12z"/>
<path d="M2600 590 c0 -5 7 -7 15 -4 8 4 15 2 15 -4 0 -6 10 -8 22 -4 14 3 19
2 14 -6 -8 -14 3 -15 22 -3 9 6 0 12 -32 20 -54 13 -56 13 -56 1z"/>
<path d="M1858 573 c36 -2 60 -8 57 -13 -10 -15 1 -12 15 5 11 13 3 15 -61 13
l-74 -2 63 -3z"/>
<path d="M2700 560 c-11 -8 -7 -9 15 -4 21 4 26 3 16 -4 -11 -8 -10 -11 6 -16
11 -4 27 -4 34 -1 14 5 111 -25 194 -60 22 -9 35 -12 29 -5 -10 10 -255 100
-272 100 -4 0 -14 -5 -22 -10z"/>
<path d="M1200 546 c0 -3 29 -22 65 -44 36 -21 62 -42 58 -45 -3 -4 2 -7 13
-7 10 0 132 -66 269 -146 241 -141 376 -214 392 -214 5 0 -33 22 -82 48 -119
62 -534 306 -529 311 2 2 27 5 56 7 29 1 96 5 148 8 52 4 127 8 165 11 109 6
606 7 613 1 13 -13 23 -5 12 9 -11 13 -61 15 -336 15 -204 0 -325 -4 -329 -10
-3 -5 -11 -10 -16 -10 -6 0 -7 5 -3 12 5 8 3 8 -7 2 -8 -5 -88 -14 -179 -20
l-165 -11 -40 27 c-46 31 -105 63 -105 56z"/>
<path d="M1423 511 c-62 -11 -63 -20 -1 -17 29 2 72 4 96 5 23 0 42 6 42 11 0
11 -71 11 -137 1z"/>
<path d="M1903 513 c20 -2 54 -2 75 0 20 2 3 4 -38 4 -41 0 -58 -2 -37 -4z"/>
<path d="M1489 437 c20 -24 216 -154 226 -150 6 2 20 -4 30 -12 19 -15 19 -16
-5 -5 -24 11 -24 11 -5 -5 32 -26 59 -39 50 -25 -5 8 -3 11 6 8 8 -3 13 -10
12 -17 -3 -13 54 -44 66 -36 5 3 11 2 13 -2 1 -5 25 -19 53 -33 27 -14 81 -48
120 -76 64 -47 147 -97 103 -62 -9 7 -25 19 -35 26 -17 12 -17 13 2 7 48 -16
47 -14 -5 13 -47 25 -259 152 -370 221 -95 60 -263 161 -267 161 -3 0 0 -6 6
-13z"/>
<path d="M2285 415 c110 -54 355 -146 367 -139 7 4 8 3 4 -4 -8 -14 3 -15 23
-3 9 6 -13 17 -70 36 -46 15 -101 36 -122 47 -21 10 -43 16 -49 12 -6 -4 -8
-3 -5 3 4 6 -5 15 -19 22 -18 8 -23 8 -18 0 8 -14 -19 -6 -104 32 -88 40 -92
35 -7 -6z"/>
</g>
</svg>
