
<svg xmlns="http://www.w3.org/2000/svg" viewBox="0 0 113 236" style="enable-background:new 0 0 113 236;" xml:space="preserve">
<style type="text/css">
	.st0{fill:#D48750;}
	.st1{fill:#A8C6BC;}
	.st2{opacity:0.3;fill:#3C3C3B;enable-background:new    ;}
	.st3{fill:#FFFFFF;}
	.st4{fill:#C67746;}
	.st5{fill:#F7F7F7;}
	.st6{fill:#EDE4AA;}
	.st7{fill:#C6C6C6;}
	.st8{fill:#3C3C3B;}
</style>
<path class="st0" d="M30.7,208.6c-0.1,1.2-1.2,2.5-1.7,3.6c-0.6,1.5-1.1,3.1-1.4,4.8c-0.3,1.5,0.6,2.1,0.3,3.6
	c-0.6,2.7-3.1,2.9-5.1,1.9s-2.9-2.1-3.1-4.4c-0.2-1.5,0-3,0.4-4.4c0.7-1.8,1.8-3.3,2.6-5.1c0.2-0.4,2.5-6.8,3.5-5.4"/>
<path class="st1" d="M75.4,88.9c5.2,10.4,14.4,21.2,18.4,33.5c2.5,7.6,3,17.8,2.2,26.5c-0.4,4.2-1.2,10.5-0.1,14.1
	c1,3.2,2.9,6.5,4.5,9.2c4,6.6,6.6,13.9,6.4,22.3c-3.7,2-8.4,0.4-12.1,2.1c-3.2,1.5-5.9,5.1-9.6,5.7c-4.2,0.6-5.1-4.6-7.3-7.8
	c-2.6-3.6-5.4-6.6-9.1-8.8c-3.8-2.2-7.9-4-12.1-5.1c-1.3-0.4-4.8-1.9-6-1.4c-1.5,0.7-3,5.4-4,6.9c-4.4,7-8.7,14.8-13.6,21.3
	c-5.7,7.4-12.3,0.1-18.7,0.2c7.3-7.8,6.9-19.1,8.7-29.3c1-5.5,0.4-9.9-0.6-15.4c-1.3-6.8,1-11.2,4.6-16.8
	c4.5-7.1,11.1-17.2,11.6-25.9c0.7-1.7,0.1-4.6,0.3-6.7c0.2-2,0.8-4,1.6-5.9c1.6-3.6,4.6-7.2,6.6-10.7c2-3.3,2.1-5.8,5.8-6.9
	c3.2-1,6.4-0.9,9.8-0.8c2.5,0,6.7,0.5,8.5-0.2"/>
<path class="st2" d="M59.1,163.3c1.6-3.5,5.7-13.5,7.1-17.6l4.5,0.8c0.7,2,2.1,3.7,3.2,5.5c1.7,3.1,3.6,6.1,5.6,9
	c3.8,5.1,7.3,10.4,11.3,15.4c3.7,4.6,6.9,9.6,9.7,14.9c0.7,1.3,1.2,2.8,1.5,4.3c-2.5,0.1-5.1,0-7.3,1c-3.2,1.5-5.9,5.1-9.6,5.7
	c-4.2,0.6-5.1-4.6-7.3-7.8c-2.6-3.6-5.4-6.6-9.1-8.8c-3.8-2.2-7.9-4-12.1-5.1c-1.3-0.4-4.8-1.9-6-1.4c-0.4,0.2-0.7,0.5-0.9,0.9
	c1.4-2.8,3.7-6.5,4.6-8.2C55.8,168.9,57.6,166.4,59.1,163.3z"/>
<path class="st0" d="M108.5,200.4c-3.5-4-4.1-9.9-5.3-15c-1.3-5.6-3.3-11.6-7.8-15.4c-1.9-1.6-4.8-3.4-6-5.7c-1.5-2.7-2-6-3.7-8.5
	c-3.3-5-10.7-18.6-11.8-20.2c-1-1.5-1.8-3.2-3.1-4.9c-0.2,2.8-0.8,5.6-1.8,8.2c-1,2.8-2.8,6.9-2.8,6.9s5.7,10.8,8.4,15.8
	c1.3,2.2,1.9,4.7,3.7,6.8c1.8,2.1,3.9,3.9,5.9,5.9c3.3,3.3,5.4,7.3,7.6,11.3s4.8,7.9,6,12.5c1.1,4.1,1.6,12.8,7.3,11.9
	c2-0.3,4.4-3,4.5-5.2"/>
<path class="st3" d="M103.4,204.6c0.9,0.6,1.9,0.9,2.9,0.9c1.2-0.1,2.4-2,2.3-3.2c-0.2-1.5-1.5-1.2-1.4-2.5c0.4-1,2.1-0.4,2.6-0.1
	c1.3,1,1.4,2.9,1.7,4.3c0.1,1,0.2,2,0.3,3c0.1,0.7,0.5,1.4,0.6,2.1c0.1,0.7,0.2,2,0,2.7c-0.2,0.5-0.5,0.9-0.9,1.2s-0.8,0.6-1.3,0.7
	c-3.6,1.1-8.6,4.9-10.1,5.5c-1.4,0.6-2.9,1-4.4,1.3c-1.8,0.4-3.7,0.4-5.5,0.2c-1.4-0.2-4.6-0.3-4.8-2.3c-0.1-1.7,1.2-3.5,2.4-4.2
	c1-0.4,1.8-1.1,2.5-2c1-1.4,2-2.9,2.8-4.4c0.6-1,1.4-1.9,2-2.9c0.6-0.9,0.8-2.5,0.9-3.7c0.4-2.5,2.7,0.2,3.9,0.5
	C100.5,201.9,104.5,202.6,103.4,204.6"/>
<path class="st3" d="M27.6,217c1,0.8,1.3,2.2,1,3.9c-0.4,1.9-0.8,3.8-1.4,5.6c-0.4,1.2-1.6,5.5-1.6,5.5s-4.3-1.2-6.3-2.4
	c-1.7-1-4.7-1-6.6-1.4C6.7,227,0,222.6,0,222.6c0-1,0.2-2,0.6-2.9c2-3.1,4.8-1.5,7.8-2.1c2.5-0.4,3.8-1.9,6.1-3.1
	c1.2-0.6,2.2-1.8,3.2-2.7c0.7-0.7,1.1-0.6,2.2-0.7c0.9-0.1,1.9,0,2.2,1c0.5,1.6-1.4,2.1-1.7,3.4c2.3,0.2,2.7,3.5,3.9,4.6
	c0.7,0.5,1.5,0.7,2.4,0.8C27.9,220.7,27.3,218.5,27.6,217"/>
<path class="st0" d="M85.9,76.1c-0.9,1.9-1.4,5.3-2.1,7.8c-0.7,2.7-1,5.6-2,8.2c-1.9,5-4.8,10.6-8.5,14.5c-2,2.1-4.7,3.7-6.4,6.1
	c-1.5,2-2.3,4.4-3.7,6.5c-1.4,2.1-7.8,4.9-8.5,4c-0.5-0.7-1.1-3.1-1.2-3.7c-0.1-0.7-0.1-1.3,0-2c0.8-0.7,1.9-0.2,2.6-1
	c-3.7,0.7,0-3.7,0.8-4.7c1.5-1.8,1.4-2.1,3.5-2.7c2-0.6,3.4-1.6,5.2-3.2c2.3-2.1,3.7-5,5.5-7.6c1.7-2.3,3.6-5.2,4.2-8.1
	c1.4-3.3-3.1-10.1,0.7-12.8c2.1-1.5,6.4,0.6,8.1-1.3"/>
<path class="st0" d="M77.8,40.7c-2.2-0.3-4.6-2.5-6.2-4.3c-2.5-2.8-1.9-5-2.8-8.2c-0.2-0.5-0.6-1-0.8-1.6c-0.2-0.7,0.2-1.8,0-2.5
	c-0.5-1.3-2-1.8-3.4-1.9c-1.9-0.1-3,0.2-4.8-0.8c-1.8-0.9-3.5-1.6-5.3-2.3c-1.8-0.8-6.8-4.4-8.1-2.6c-1.5,2,0,6.7,0.6,8.4
	c0.4,1.2,0.7,2.5,1,3.7c0.7,2.6-0.7,3.4-0.5,4.5c0.2,0.9,1.4,0.3,1.8,0.9c0.5,0.7,0,1.8,0.4,2.7c0.2,0.1,0.4,0.3,0.7,0.4
	c0.1,0.8,0.6,1.3,1.2,1.3c0.9,2.1,1.3,4,3.2,3c0.7-0.4,4.3-2.2,4.3-2.2l0.4,2.3c0,0,0,2.6,0.3,4.8c0.5,5,5,8,9.8,7.5
	c2.9-0.3,6.6-2.1,8.3-4.2"/>
<path class="st4" d="M66.2,45.3c3.8-1,7.1-3.3,9.9-5.1c0.5,0.3,1.1,0.5,1.7,0.6l0.1,5.8c-1.3,2.2-4.2,3.9-5.8,5.2
	c-1,0.8-2.1,1.5-3.3,2.2c-4.4,0.1-8.5-2.9-8.9-7.6c-0.2-2.2-0.3-4.8-0.3-4.8l-0.4-2.3c0.9-0.5,1.4-1,2.6-1.8
	C62.6,45.1,62,46.3,66.2,45.3z"/>
<path class="st5" d="M76.9,40.2c2.9,1.4,6.3,3.6,8.4,6.6c1.2,1.7,1.4,4.9,2,6.9c0.7,2.7,1.1,5.6,1.6,8.5c0.4,2.4,1.1,4.8,1.6,7.3
	c0.4,1.9,0.7,4.7,1.4,6.4C90.3,78.4,86.5,78,84,78c-1.9,0-7.4-1-8.6,0.5c-1.5,1.8,0,5.9,0.2,7.7c0.3,2.9-0.3,4.9-2.8,6.6
	c-2.1,1.4-5.8,1.3-7.9,0.2c-2.6-1.4-3.3-3.6-6.6-1.9c-2.7,1.5-4.6,0.8-7.3-0.3c-1.3-0.6-2.3-0.6-2.8-2.1c-0.4-1.4,0.2-3.2,0.4-4.6
	c0.7-6.1-0.8-13.2,1-18.9c1-3.2,2.1-6.6,1.9-10.2c-0.1-3.1-1.2-6.1,0.3-9c1.7-3.2,4.8-3.7,7.7-4.4c0.5,2.4-0.3,5.7,2.1,6.3
	c1.6,0.4,3.4-0.2,4.8-0.6C69.9,46.4,76.7,40.4,76.9,40.2"/>
<path class="st6" d="M70.6,35.2c1.5,0.2,3-2.4,3.5-3.7c-0.7-0.1-2.3,0-2.2-1.2c1.1-1,2.4-2.2,2.6-3.9c0.3-1.8-0.1-3.8-0.3-5.5
	c-0.2-1.6-0.5-3.7-0.2-5.3s1.3-1.9,2.1-0.6c1.1,1.8,1.7,3.8,2,5.9c0.1-1.3,0.5-2.5,0.4-3.8c0-0.7-0.1-1.4-0.3-2.1
	c-0.2-0.5-0.6-0.8-0.6-1.3c0.5-0.6,1.2-1.6,0.9-2.5c-0.3-1.1-1.2-1-1.2-2.3c0-1.1,0.6-1.7,0-2.5C77.2,6,76.8,6,76.8,5.3
	s0.8-1.3,1.1-1.7c-0.9,0.5-4.1,0.9-4.7,0.1c-1.1-1.2,1-2.5,0.3-3.5c-1.2,0.2-2.2,1-3.5,1c-0.5-2.1-2.6-1.1-3.3,0.2
	c-0.9,1.6-1,3.3-2.4,4.5c-0.8-0.8-1.7-1.5-2.4-2.4c-0.6-0.8-1.4-1.7-2.4-1.7C57.7,1.7,57.1,3.9,56,5c-0.6,0.6-1.3,1-2,1.2
	c-1,0.2-1.2-0.1-1.9,0.8c-1.1,1.5-2.3,3-3.6,4.3c-1,1-3.7,1.3-4.3,2.7c-0.4,1,0.9,4.2,1.5,5c0-0.6,0.1-1.2,0.4-1.8
	c0.3-0.5,0.8-0.3,1.3-0.3c1.3,0.1,1.7,0.8,2.7,1.8c2.3,2.2,4.4,3.7,7.8,3c1-0.2,0.9-0.6,1.9,0s2,1.1,3.1,1.5
	c1.4,0.5,5.1-0.1,4.7,2.4c-0.2,1.2-1.6,2-0.4,2.8c0.6,0.3,1.1,0.5,1.8,0.7C68.7,30.6,69.8,33.9,70.6,35.2"/>
<path class="st3" d="M45.1,26.3c0.8-0.4,1.8,0.1,2.6,1.1c0.1,0.4,0.2,0.9,0.3,1.3c0.1,0.2,0.1,0.4,0.1,0.7c0.1-0.1,0.2-0.1,0.2-0.1
	c0.2,0,0.4,0,0.6,0c-0.4-1.5,0-3,1.1-3.5c1.2-0.6,2.7,0.3,3.5,2l8.5-5l1.2,0.4L54,28.7c0.4,1.6,0,3.2-1,3.7
	c-1.2,0.6-2.9-0.4-3.7-2.2c0-0.1-0.1-0.1-0.1-0.2c-0.3,0-0.6,0-0.8,0c-0.1,0-0.2,0-0.2,0.1c0,0.8-0.2,1.6-0.6,2.3
	c-1,0.5-2.4-0.5-3.1-2.1C43.8,28.7,44.1,26.9,45.1,26.3z"/>
<path class="st7" d="M74.9,73.9c0.2,1.8-0.1,4-0.2,6c-0.1,0.7-0.1,1.5,0,2.2c0.2,1.5,0.7,3.1,0.8,4.1c0.2,2,0,3.6-1,4.9
	c0.1-0.8,0.1-1.5,0.1-2.3c-0.1-1.1-0.8-2.1-1.1-3c-0.3-1.3-0.2-2.6-0.3-4.1c-0.3-5.7-0.9-11.1,1.2-16.2
	C74.4,68.3,74.6,71.1,74.9,73.9z"/>
<path class="st8" d="M109.3,206.6c-0.4-0.1-0.8-0.9-1-1.2c0.9-0.9,1.8-2,1.8-3.6c-0.1-0.6,0-1.3,0.1-2c1.1,1,1.2,2.8,1.4,4.1
	c0,0.2,0.1,0.5,0.1,0.7c-0.4,0.4-0.7,0.8-1,1.2C110.3,206.2,109.8,206.8,109.3,206.6z"/>
<path class="st8" d="M27.1,221.7c0.6-0.3,1.1-0.7,1.5-1.3c0,0.2,0,0.3-0.1,0.5c-0.2,1.1-0.4,2.1-0.7,3.1c-0.4,0-0.7-0.1-1-0.3
	c-1-0.4-0.8-1.1-0.8-2.1C26.2,221.8,26.8,221.9,27.1,221.7z"/>
</svg>
