
<svg xmlns="http://www.w3.org/2000/svg" viewBox="0 0 158 260" style="enable-background:new 0 0 158 260;" xml:space="preserve">
<style type="text/css">
	.st0{fill:#211E21;}
	.st1{fill:#A4BAD2;}
	.st2{fill:#FFFFFF;}
	.st3{fill:#CE9F83;}
	.st4{fill:#34261C;}
	.st5{fill:#A8C6BC;}
</style>
<g>
	<path class="st0" d="M50.8,238.3c0,0-1.6-0.2-1.7,1.2c-0.1,1.5-1.1,3.3-1.2,3.7s-0.6,1.2,0.7,1.2c1.4,0,6.3,2.1,10.3,3.2
		c4,1.1,9.6,2.6,17.6,2.3c8.1-0.3,10.1-1,8.8-2.5c-1.3-1.5-5.8-0.8-6.7-1.1c-0.9-0.2-0.1-2.3-2.1-2.7s-6.6-3-7.9-3.9s-0.9-4.3-2.7-4
		c-1.8,0.3-4.6-0.2-5,1.4c-0.4,1.6-2.5,2.3-3.6,3.5s-3.6,2.3-4.7,1.6C51.6,241.4,51.6,238.8,50.8,238.3z"/>
	<path class="st0" d="M83.4,152.3c-2.4-0.5-9.2,0-9.2,0s-0.8-2.2-2.2-2.6c-1.2-0.3-2.4-0.5-3.7-0.6c0,0-26.8,5.8-27.4,6.2
		c-0.8,0.4-1.7,0.8-2.6,1.1c0,0-7.3-0.5-7.8,1.4s3.8,38.8,4.2,41c0.4,2.2,18.1,1.6,26.2,1.2c8.2-0.4,25.8-3.2,27.2-3.4
		c1.4-0.2-0.5-7.8-0.7-12.5C87.1,179.2,85.4,152.7,83.4,152.3z"/>
	<path class="st1" d="M30.6,112.9c-0.4,1-0.4,2.2,0,3.3c0.7,1.9-0.9,4.6-1.5,8.9c-0.6,4.2,1.5,12.2,5.2,18.3
		c5.2,8.6,9.9,13.7,13.3,19.7c5,8.9,7.2,18,8.2,18.3c0.9,0.2-0.7,1.6-0.4,2.2c0.3,0.6-1.5,1.1-2.8,1.6c-1.4,0.5-10.1,7.1-13.4,9.2
		c-3.1,2-6,4.3-8.7,6.7c-0.8,0.8-5.3,1.2-5.4,2.7c-0.1,1.6,1.9,2.5,2.3,4s0.8,1.7,1.7,2.1s5.1,5.9,5.7,6c0.5,0.1,4.3-2.7,4.3-3.1
		c0-0.3,13.2-9.6,13.2-9.6s-2,15-2,17.7s-0.6,5.5-0.4,6.2s-1.6,3.1,0.2,3.1c1.8,0,10.9,0.3,12.5,0.6s4,0.6,3.9-1.5
		c-0.1-1.8-0.1-3.5,0-5.3c0.1-1.6,1.2-16.8,2.4-21.1c1.2-4.3,3-9.6,3.3-10.9c0.2-1.3,4.8-2.5,4.6-6.2c-0.2-3.7-2.2-11.5-3-14.8
		S69,155.2,69,153s-5.7-15.9-6.2-17.4c-0.6-1.5-0.9-6.3-0.6-9c0.3-2.6-0.3-9.9-0.5-11.7c-0.2-1.8-8.2-9.7-12.5-10.1
		C44.6,104.6,32.8,102.5,30.6,112.9z"/>
	<path class="st0" d="M18.3,210.2c-0.8-0.3-1.8-0.3-2.6,0c-1.6,0.5-3.9,0.5-5,1.5c-1.2,0.9-2.5,1.2-2.5,2s0.9,3.3,2.3,5.2
		s4.1,6.5,4.7,8.6s4.9,11.6,8.1,14.3s4.9,5.1,5.4,2.7c0.4-2.3-1.4-2.8-2.2-6.1c-0.8-3.3-2-7.4-1.4-7.4c0.6,0.1,4-2.4,3.6-4.9
		l-0.4-2.4l-0.5,1.2c0,0,1.2,1.5,0.1,2.8c-0.9,1-1.8,1.9-2.8,2.7c0,0,0.2-2.2,0.6-2.7s3-3,2.4-4.5c-0.5-1.1-0.7-2.3-0.4-3.5
		c0.2-0.6-2-0.6-3.2-0.1s-4.2-0.1-5.5-0.9c-1.3-0.8-4.1-3.6-2.7-4.7C17.7,212.8,18.6,212.1,18.3,210.2z"/>
	<path class="st2" d="M55.8,14.7c0,0-0.7,0.8-2,0s-4.1,0.3-4.7,1.2c-0.6,0.9-1.1,2.4-1.4,4.7c-0.4,2.2-0.5,3.6-1.6,4.6
		s-1.6,3.5-1.8,3.9c-0.2,0.4-0.7-2.5-2.1-2.6c-1.4-0.2-3.5-0.2-3.9,1.3c-0.4,1.6,1.2,4.1,2,5.5c6,10-3.9,26.9-3.9,28.6
		c-0.1,1.7-10.3,16-10.8,14.8S24.8,65.1,27.1,60c0.6-1.4-1.1-8.1,0.1-8.8c1.2-0.7-2.9-6.9-0.2-18c0.3-1.1,1.6-11.4,7.6-19.5
		C38,9.2,40.3,9,43.1,8.2c2.5-0.6,11.3,1.3,12.9,2.6c1.6,1.3,3.4,6.7,1.4,4.5C57.3,15.1,56.4,14.4,55.8,14.7z"/>
	<path class="st3" d="M26.8,206.8c0,0-2.6,2.6-8.5,3.4c-5.9,0.7-4.5,4.5-1.7,7.6s10.2,1.5,10.2,1.5s3.4-4.8,5.7-5.6
		C35,212.9,26.8,206.8,26.8,206.8z"/>
	<path class="st3" d="M52.6,230.2c0,0-1.2,7.5-1.8,9.4c-0.6,1.9,1.9,3.6,4,3.2s8.7-4.3,9.3-7.1c0.4-1.5,0.4-3.2,0-4.7
		C64.1,231,54.1,227.8,52.6,230.2z"/>
	<path class="st2" d="M130.4,226c0,0-2.6,1.5-4,1.1c-1.1-0.4-2.2-0.3-3.3,0.1c-0.9,0.3-2.3-1.7-2.3-1.7c-0.9,0.4-1.7,1-2.3,1.7
		c-0.7,1-2.1,3.7-3.4,3.8s-2.7,3.8-3.5,3.9c-0.7,0.1-1.4,2.7-0.9,4.2c0.4,1.5,2.1,3.8,2.2,5.4c0.1,1.6,2,4.6,2.8,4.6
		s6.1,1.2,5.8,2.1c-0.3,1-0.7,1-1.8,1c-1.1,0.1-5,1.5-5.6,1.1c-0.5-0.4-1.5-2.5-2.6-3.3c-1.2-0.8-2.8-1.5-2.8-2.6s-4.2-9.9-4.8-10.6
		s-0.8-2.4-2.2-1.1c-1.4,1.3-1.9,4.5-1.9,7.2s-0.4,6-1.5,6.3s-2.3,0-4.1,0.4c-1.7,0.5-3.6,0.6-5.4,0.3c-1.3-0.2-2.5-1-1.8-1.4
		s0.9-2.2,2-2.3s5.6,0.7,5.7-0.9c0.1-1.6-0.8-4.4-0.8-6s-0.2-4.8-0.2-4.8s-3.5-0.9-5-1.8c-1.4-1-3.4-2.1-4.5-1.8
		c-1.1,0.2-2.4,1.4-2.8,0.6c-0.4-0.7-0.9-3.6-1.6-3.8c-0.7-0.1-3.7,0-3.4,0.2c0.4,0.2,0.7,5.5,0,7.5s-1.5,5.9-1,7.6
		c0.5,1.8,4,6.5,5,6.4s6.3-0.4,6.2,0.6c0,1-0.8,1.4-2,2.1c-1.3,0.7-4.7,1.7-6,1.4c-1.3-0.2-1.4-1.7-2.1-2.8s-4.4-5-5.9-5.9
		s-0.9-4.7-0.9-6.2s-1.5-3.8-2.1-3.8s-1.8,1.6-4.7,2.5c-2.9,0.8-6,1.3-6.2,2.9c-0.2,1.7-1.3,4.7-1.3,6s2,2,1.6,3.5
		c-0.4,1.4-0.7,1.6-1.6,0.9c-1-0.6-3.6-3.5-3.5-4.3s1.6-2.5,1.6-3.8s-0.4-8.4,1.2-8.8c1.7-0.4,4.3-1.8,3.9-3.6
		c-0.4-1.7-2-9.2-0.2-10.8s3.6-2.7,2-4.6c-1.6-1.9-4.6-4-5-5.8c-0.5-1.7-6.2-5.5-4.1-6.9s7.6-1.7,9.1,1.7c1.3,2.6,3.4,4.8,6,6.1
		c1,0.5,5.7-4.5,12.6-4.3s8.7,1.3,13,1.8s7.7,2.1,9.9,2.4c2.2,0.2,7.6,0.3,10.8,0.5c3.2,0.3,3.8-0.4,6,0s3.4,2.3,7,2.7
		c3.6,0.5,3.5,1.1,2.5,3.4C127.3,219.1,130.4,226,130.4,226z"/>
	<path class="st2" d="M143.7,226.4c0.9,0.8,1.8,1.5,2.8,2.2c0.6,0.3-1,2.6-1.8,3.1s-2.4,1.1-2.9,0.9c-0.6-0.2-0.2,1-1.8,1
		c-1.7-0.1-5.7-3.2-7.5-5.1c-0.7-0.9-1.5-1.7-2.4-2.4c0,0,0.6-2.4,3.4-1.8C136.2,224.9,143.7,226.4,143.7,226.4z"/>
	<path class="st0" d="M90.7,207.6c-0.1,0-1.2,0.8-2.3,1.2c-1.1,0.5-1.2,1.1-1.7,2.2c-0.5,1-2.1,2.5-4.1,3.1s-4.5,0.9-6.7-0.4
		c-2.2-1.3-4.4-2.9-3.8-3.8c0.6-0.8-2.5-1-2.5-1c2.4-1.7,5.3-2.8,8.2-3C82.5,205.4,90.7,207.6,90.7,207.6z"/>
	<path class="st0" d="M67.9,209.8c0,0-0.7,1.9-1.9,2.3c-1.1,0.4-3.4,4.3-4.3,4.7c-0.8,0.4-0.1-3.1-0.8-3.5c-0.7-0.4-0.4-2.3,0-3.5
		c0.3-1.4,0.5-2.8,0.5-4.2c0,0,3.5,3.8,4.4,4.1C66.5,210,67.2,210,67.9,209.8z"/>
	<path class="st0" d="M120.5,211.3c0.1-0.3,5.2,0.4,7.1,0c1.5-0.3,3.1-0.3,4.6,0.1c0.6,0.2,1.9-0.5,3.2,0.8s4.1,4.6,4.5,5.7
		c0.4,1.1,1.2,2.3,0.7,2.7c-0.4,0.4,1.6,4.5,3.1,5.7c1.5,1.3-2.1,1.1-3.1,0.8s-2,0.7-2.3,1.3s-1.3,0.4-2.1,0
		c-0.7-0.4-2.6-1.8-3.6-1.9c-0.7-0.1-1.3-0.3-1.9-0.7s-1.1-0.8-1.4-1.4c-0.8-1.2-3.3-3.7-2.8-6.4s1.9-2.9-0.3-3.4
		C124,214.3,119.8,212.9,120.5,211.3z"/>
	<path class="st4" d="M145.4,231.1c0,0,2-1.8,1.6-2.1c-0.5-0.3-1.2-0.9-1.6-0.5C145,228.8,144.2,231,145.4,231.1z"/>
	<path class="st2" d="M17,216.9c0,0-2.4,3.3-2.9,3.9c-0.4,0.7-0.7,1.4-0.9,2.2l0.9,1.7c0.5-1.1,1.2-2.1,1.9-3.1
		c0.6-0.6,2.4-3.3,2.4-3.3l0.6,0.5c0,0-4,6-4.3,6.2s-0.2,0.4-0.2,0.4l0.9,1.7c0,0,2-2.8,2.7-3.6s2.3-3.6,3-3.6
		C19.5,219,18.1,218.1,17,216.9z"/>
	<path class="st2" d="M58.1,240c0.7,1.4,1.3,2.9,1.8,4.4c0.3,1.4,1.1,3.8,1.1,3.8l-2.3-0.6c0,0-0.9-4-2.2-5.3l-0.1,0.3l1.7,4.7
		l-2.6-0.8l-1.1-4.2C55.8,242,57.1,241.1,58.1,240z"/>
	<path class="st0" d="M80.7,143.3c0.2,3.4,1.3,6.7,3.1,9.6c3.1,5.1,9.9,17.2,9.9,17.2l4.9,4.5c0,0-1.7-8.5-2.8-12.1
		c-1.1-3.6-5.8-22-9-23.7c-3.1-1.7,2.8-0.6,4.8,5.3s7.6,25.6,8,28.6c0.4,2.9,3.6,7,3,8.5c-0.5,1.6,1.8,4.8,1.8,4.8s2.8,1.1,4.4,5.1
		s0.9,3.5,0.9,3.5l9.3,16.5c0,0-0.7,0.8,0.6,2.2c1.4,1.4,0.7,11.1,3.2,13.9c0,0-1.8,1-2.3,0.3c-0.5-0.6-3-5.5-2.6-9.1
		s-0.4-4.6-1.1-5.7c-0.4-0.6-0.7-1.2-0.9-1.8l-8.7-16.4c0,0-0.3-2.4-1.4-3.4s-4.6-4.4-3.4-5.2c0,0-0.3-3.8-1.4-4.6s-3.3-3.2-3.7-4.3
		c-0.4-1.2-2.1-1.4-2.1-2.4s-2.3-2.6-3.2-3.8c-2.7-3.9-7.9-15.5-9.2-17.6c-1.4-2.1-4.8-7.9-3.5-11.2L80.7,143.3z"/>
	<path class="st3" d="M71.1,115.7c0,0,5.2,6.6,6.2,8.1s2.4,4.3,3.9,4.7c1.7,0.6,3.4,1.4,5.1,2.2c0.9,0.5,1.3,2.4,2,3.5
		c0.8,1.1,1.6,2.2,2.6,3.1c0.4,0.3,0.3,1.5-0.4,1.6c-0.4,0.1-0.9,0.1-1.3,0c0.1,0.6,0.3,1.2,0.5,1.7c0.4,0.5,1.4,2,0.2,2.3
		c-0.8,0.1-1.6,0.1-2.4,0c0,0-0.2,0.5-1.1,0.3c-0.5-0.1-1-0.2-1.5-0.5c0,0.1-0.1,0.2-0.1,0.3c-0.1,0.1-0.2,0.2-0.2,0.2
		c-0.1,0.1-0.2,0.1-0.3,0.1c-0.1,0-0.2,0-0.3,0c-0.5-0.1-1-0.3-1.4-0.7c0,0-1.2,0.8-1.7,0.7c-0.5-0.1-2.1-2.3-2.6-2.9
		c-0.4-0.6-4-5.2-4.2-6.7s-0.8-2.9-1.7-4.1c-0.9-1.1-9-8.9-9-8.9S67.7,113.8,71.1,115.7z"/>
	<path class="st0" d="M39.9,42.6c-0.2,0.1-0.4,0.3-0.6,0.6c-0.1,0.2-0.2,0.5-0.3,0.8c-0.1,0.9-1.5,2-1.5,3s-2.1,2.5-2.7,3.5
		s-2.4,6.3-3,6.8s-2.8,4-3.4,6.6s-1.7,8.9-2.5,10.9c-0.8,2.1-1.7,11.6-1.7,17.1s0.4,8.7,0.8,9.2s-0.4,3.4,1.2,4.3s1.2,3.2,1.7,3.6
		c0.6,0.5,0.7,2,1.1,2.6s1.2,2.3,1.6,1.3c0.3-0.9,0.9-3.2,1.8-3.8c0.9-0.6,2.5-2.6,3.6-2.3c1.1,0.3,3.5-1.3,5.1-1.7
		c1.6-0.4,2.9,0.6,3.9,0.5c1-0.2,2.4,1.2,3.7,1.2c1.3,0,2.1,1.4,2.5,1.9s1.7,3.6,4.9,5.7c3.2,2.1,5,6.8,6.2,6.6
		c1.2-0.2,7.2-5.1,8.3-5.3c1.2-0.2-0.9-2-1.9-3.2c-1-1.3-3.4-4.6-3.4-5.7s-0.8-6.5-1.9-8.7s-1-11.9-0.9-12.7s-1.2-7.7-1.4-10.1
		c-0.2-2.4-4.4-8.5-5.5-12.3c-1.1-3.9-2.3-8.3-1.4-10s-1.6-2.3-1.6-2.3s-0.2,1.1-1.4-0.2C50.1,49.2,43.4,42.9,39.9,42.6z"/>
	<path class="st3" d="M61.4,26.8c-0.3-0.9-1.6-3.4-1.3-4.1c0.3-0.6-0.1-1.4-0.4-2.6s-2.4-5-2.4-5s-0.9-0.8-1.5-0.5c0,0-0.7,0.8-2,0
		s-4.1,0.3-4.7,1.2c-0.6,0.9-1.1,2.5-1.4,4.7c-0.4,2.2-0.5,3.6-1.6,4.6s-1.6,3.5-1.8,3.9c-0.2,0.4-0.7-2.5-2.1-2.6
		c-1.4-0.2-3.5-0.2-3.9,1.3c-0.4,1.6,1.2,4.1,2,5.5c0.5,0.4,0.8,1,0.9,1.6c0.5,1,0.8,2.1,0.9,3.2c0.3,1.8,0.3,3.5,0.1,5.3
		c3.3,2.1,6.3,4.5,9.2,7.1c0.9,0.9,1.2,0.6,1.4,0.4c-0.2-0.9-0.4-1.9-0.4-2.8c0-1.4,1.2-6,2-7.5c0.7-1.5,3.2-2,4.4-2.2
		c1.2-0.2,2.8-0.1,3-5.5C61.7,31.4,62,28.5,61.4,26.8z"/>
	<circle class="st5" cx="43" cy="31" r="5"/>
	<path class="st5" d="M41.5,8.5c-1.6,0-0.7,12,0,18H44C43.8,20.5,43.1,8.5,41.5,8.5z"/>
</g>
</svg>
