<?xml version="1.0" encoding="utf-8"?>
<!-- Generator: Adobe Illustrator 26.5.0, SVG Export Plug-In . SVG Version: 6.00 Build 0)  -->
<svg version="1.1" xmlns="http://www.w3.org/2000/svg" xmlns:xlink="http://www.w3.org/1999/xlink" x="0px" y="0px"
	 viewBox="0 0 728.5 1031.81" enable-background="new 0 0 728.5 1031.81" xml:space="preserve">
<g id="bg" display="none">
	<rect display="inline" fill="#FFFFFF" width="728.5" height="1031.81"/>
</g>
<g id="red">
	<rect x="243.07" fill="#ED1C24" width="342.37" height="1031.81"/>
</g>
<g id="black">
	
		<rect x="227.31" y="-127.7" transform="matrix(0.7071 0.7071 -0.7071 0.7071 461.2101 -94.6146)" width="235.01" height="1274.25"/>
</g>
<g id="wb-r">
	
		<rect x="441.26" y="-46.53" transform="matrix(0.7071 0.7071 -0.7071 0.7071 379.6837 -290.9402)" fill="#FFFFFF" width="199.55" height="718.75"/>
</g>
<g id="wb-l">
	
		<rect x="-254.75" y="649.84" transform="matrix(0.7071 0.7071 -0.7071 0.7071 668.2291 405.1735)" fill="#FFFFFF" width="199.55" height="718.75"/>
</g>
<g id="w2">
	
		<rect x="310.05" y="180.34" transform="matrix(0.7071 -0.7071 0.7071 0.7071 -392.3935 445.1736)" fill="#FFFFFF" width="62.25" height="1031.81"/>
</g>
<g id="w1">
	
		<rect x="197.66" y="292.74" transform="matrix(0.7071 -0.7071 0.7071 0.7071 -504.7867 398.6189)" fill="#FFFFFF" width="62.25" height="1031.81"/>
</g>
<g id="city23">
	<g>
		<path d="M181.4,534.89c-0.85-0.85-1.89-1.26-3.13-1.25c-1.24,0.02-2.3,0.47-3.18,1.35c-0.9,0.9-1.36,1.97-1.38,3.21
			c-0.02,1.24,0.4,2.28,1.25,3.13c0.41,0.41,0.84,0.74,1.31,1c0.47,0.26,0.84,0.43,1.11,0.5l0.38,0.08l-1.6,4.66
			c-0.2-0.03-0.48-0.09-0.81-0.18c-0.34-0.08-1-0.39-1.97-0.93c-0.98-0.54-1.9-1.24-2.76-2.1c-1.92-1.92-2.93-4.28-3.03-7.08
			c-0.1-2.8,0.79-5.14,2.67-7.03c1.9-1.9,4.26-2.81,7.08-2.72c2.82,0.09,5.18,1.09,7.1,3c0.87,0.87,1.56,1.77,2.09,2.7
			c0.53,0.93,0.84,1.66,0.94,2.16l0.13,0.74l-4.61,1.55C182.82,536.73,182.29,535.79,181.4,534.89z"/>
		<path d="M194.71,541.59l-13.06,13.06l-4.51-4.51l13.06-13.06L194.71,541.59z M195.24,531.33c-0.73,0.73-1.09,1.62-1.09,2.67
			c0,1.05,0.37,1.94,1.09,2.67c0.73,0.73,1.62,1.1,2.67,1.1s1.94-0.37,2.67-1.1c0.73-0.73,1.09-1.62,1.09-2.67
			c0-1.05-0.37-1.94-1.09-2.67c-0.73-0.73-1.62-1.09-2.67-1.09S195.97,530.6,195.24,531.33z"/>
		<path d="M198.65,545.53l4.86-4.86l4.51,4.51l-4.86,4.86l2.75,2.75l-3.44,3.44l-2.75-2.75l-4.15,4.15
			c-1.21,1.21-1.47,2.15-0.79,2.83c0.17,0.17,0.38,0.31,0.64,0.43c0.25,0.12,0.47,0.2,0.64,0.23l0.25,0.05l-2.52,4.76
			c-1.51-0.42-2.89-1.26-4.12-2.5c-0.85-0.85-1.43-1.73-1.74-2.63c-0.31-0.91-0.38-1.77-0.19-2.58c0.19-0.81,0.49-1.56,0.9-2.25
			c0.42-0.69,0.94-1.34,1.57-1.97l5.02-5.02l-1.88-1.88l3.44-3.44L198.65,545.53z"/>
		<path d="M217.85,564.73l5.19,5.19l-29.94,9.42l-5.19-5.19l13.16-4.15l4.84-17.21l5.19,5.19l-3.05,10.33L217.85,564.73z"/>
		<path d="M236.05,574.37c-0.68-0.68-1.66-0.99-2.95-0.94c-1.29,0.05-2.41,0.26-3.36,0.64l-1.43,0.56l-2.06-5.93
			c0.22-0.12,0.53-0.25,0.92-0.41c0.39-0.15,1.16-0.36,2.3-0.62c1.15-0.26,2.25-0.39,3.32-0.39c1.07,0,2.29,0.24,3.65,0.73
			c1.37,0.48,2.58,1.26,3.65,2.33c1.38,1.38,2.4,2.75,3.08,4.12c0.68,1.37,1.04,2.6,1.08,3.68c0.04,1.08-0.11,2.14-0.47,3.19
			c-0.36,1.05-0.78,1.91-1.26,2.58s-1.04,1.32-1.67,1.95c-0.92,0.92-2.13,1.63-3.65,2.13c-1.52,0.5-3.03,0.79-4.54,0.85
			c-1.51,0.07-2.96,0.06-4.34-0.01c-1.38-0.08-2.51-0.19-3.37-0.34l-1.3-0.23l7.79,7.79l-4.2,4.2l-16.37-16.37l1.2-1.2
			c0.52,0.05,1.24,0.12,2.15,0.19c0.91,0.08,2.57,0.15,4.98,0.22c2.41,0.07,4.6,0.06,6.58-0.01c1.98-0.08,3.94-0.31,5.89-0.7
			c1.95-0.39,3.29-0.95,4.02-1.68c0.29-0.29,0.55-0.61,0.78-0.95s0.47-0.81,0.71-1.4c0.25-0.59,0.28-1.23,0.1-1.93
			C237.1,575.69,236.69,575.02,236.05,574.37z"/>
		<path d="M248.8,591.91l-1.93-5.6c0.15-0.08,0.37-0.2,0.65-0.34c0.28-0.14,0.85-0.31,1.72-0.5c0.87-0.19,1.73-0.25,2.6-0.2
			c0.86,0.05,1.9,0.35,3.12,0.9c1.21,0.55,2.37,1.38,3.47,2.48c2,2,3.08,4.23,3.23,6.67c0.15,2.44-0.66,4.56-2.44,6.34
			c-1.66,1.66-3.6,2.36-5.8,2.09c0.7,2.87-0.02,5.36-2.14,7.48c-2,2-4.39,2.92-7.15,2.75c-2.77-0.17-5.28-1.38-7.53-3.64
			c-1.21-1.21-2.12-2.48-2.75-3.82c-0.63-1.34-0.97-2.54-1.02-3.59c-0.05-1.05,0-2.02,0.14-2.89c0.15-0.87,0.33-1.56,0.55-2.05
			l0.36-0.71l6.59,2.27c-0.08,0.09-0.19,0.21-0.31,0.38c-0.12,0.17-0.29,0.52-0.51,1.04c-0.22,0.53-0.36,1.04-0.42,1.54
			c-0.06,0.5,0.02,1.09,0.24,1.77c0.22,0.68,0.63,1.32,1.22,1.91c0.9,0.9,1.88,1.38,2.93,1.45c1.05,0.07,2.01-0.33,2.88-1.2
			c0.9-0.9,1.35-1.93,1.34-3.09c-0.01-1.16-0.44-2.17-1.29-3.02l-1.07-0.76l3.13-3.13l1.04,1.04c0.66,0.66,1.5,0.99,2.52,0.99
			c1.02,0,1.9-0.37,2.65-1.12c0.66-0.66,0.95-1.47,0.88-2.43c-0.08-0.96-0.46-1.79-1.16-2.48c-0.49-0.49-1.03-0.85-1.6-1.07
			s-1.1-0.31-1.57-0.27c-0.47,0.04-0.9,0.12-1.3,0.23c-0.4,0.11-0.7,0.23-0.9,0.37L248.8,591.91z"/>
		<path d="M254.05,627.04l13.06-13.06l4.51,4.51l-1.88,1.88l0.05,0.05c0.1-0.03,0.24-0.06,0.42-0.09c0.18-0.03,0.52-0.04,1.03-0.04
			s1.01,0.04,1.5,0.13c0.49,0.08,1.05,0.28,1.67,0.57c0.62,0.3,1.17,0.68,1.64,1.16c0.49,0.49,0.91,1.04,1.25,1.65
			c0.34,0.61,0.55,1.09,0.64,1.45l0.15,0.56l-5.7,1.93c-0.08-1.04-0.63-2.05-1.63-3.05c-0.54-0.54-1.13-0.89-1.76-1.04
			c-0.63-0.15-1.19-0.14-1.69,0.04c-0.5,0.18-0.9,0.35-1.21,0.52c-0.31,0.17-0.53,0.32-0.66,0.46l-6.87,6.87L254.05,627.04z"/>
		<path d="M269.03,638.79c0.11-2.55,1.13-4.8,3.07-6.73c1.94-1.94,4.18-2.96,6.75-3.08c2.56-0.12,4.79,0.76,6.67,2.65
			c1.73,1.73,2.61,3.7,2.65,5.91l1.25-1.25l4.51,4.51l-13.06,13.06l-4.46-4.46l1.48-1.48l-0.05-0.05c-2.36,0.12-4.4-0.69-6.14-2.42
			C269.8,643.56,268.92,641.34,269.03,638.79z M279.97,635.51c-1.16-0.01-2.19,0.44-3.09,1.34c-0.9,0.9-1.35,1.91-1.36,3.04
			c-0.01,1.13,0.45,2.15,1.36,3.07c0.88,0.88,1.9,1.32,3.04,1.31c1.15-0.01,2.16-0.45,3.04-1.34c0.9-0.9,1.35-1.93,1.34-3.09
			c-0.01-1.16-0.44-2.17-1.29-3.02C282.15,635.95,281.13,635.51,279.97,635.51z"/>
		<path d="M286.41,656.18c0.11-2.55,1.13-4.8,3.07-6.73c1.94-1.94,4.18-2.96,6.75-3.08c2.56-0.12,4.79,0.76,6.67,2.65
			c1.73,1.73,2.61,3.7,2.65,5.91l10.08-10.08l4.51,4.51l-21.89,21.89l-4.46-4.46l1.48-1.48l-0.05-0.05
			c-2.36,0.12-4.4-0.69-6.14-2.42C287.19,660.95,286.3,658.73,286.41,656.18z M297.36,652.89c-1.16-0.01-2.19,0.44-3.09,1.34
			c-0.9,0.9-1.35,1.91-1.36,3.04c-0.01,1.13,0.45,2.15,1.36,3.07c0.88,0.88,1.9,1.32,3.04,1.31c1.15-0.01,2.16-0.45,3.04-1.34
			c0.9-0.9,1.35-1.93,1.34-3.09c-0.01-1.16-0.44-2.17-1.29-3.02C299.54,653.34,298.52,652.9,297.36,652.89z"/>
		<path d="M318.86,665.73l-13.06,13.06l-4.51-4.51l13.06-13.06L318.86,665.73z M319.39,655.48c-0.73,0.73-1.1,1.62-1.09,2.67
			c0,1.05,0.36,1.94,1.09,2.67c0.73,0.73,1.62,1.1,2.67,1.1c1.05,0,1.94-0.37,2.67-1.09c0.73-0.73,1.09-1.62,1.09-2.67
			c0-1.05-0.36-1.94-1.09-2.67c-0.73-0.73-1.62-1.09-2.67-1.09C321.01,654.38,320.12,654.75,319.39,655.48z"/>
		<path d="M311.77,681.66c-0.16-2.74,0.77-5.12,2.79-7.14c2.02-2.02,4.43-2.92,7.24-2.71c2.81,0.21,5.32,1.43,7.55,3.65
			c2.19,2.19,3.38,4.69,3.58,7.5c0.2,2.81-0.71,5.21-2.71,7.22c-2,2-4.39,2.92-7.15,2.75c-2.77-0.17-5.28-1.38-7.53-3.64
			C313.18,686.94,311.93,684.4,311.77,681.66z M322.43,677.97c-1.16-0.01-2.19,0.44-3.09,1.34c-0.9,0.9-1.35,1.91-1.36,3.04
			c-0.01,1.13,0.45,2.15,1.36,3.07c0.88,0.88,1.9,1.32,3.04,1.31c1.15-0.01,2.16-0.45,3.04-1.34c0.9-0.9,1.35-1.93,1.34-3.09
			c-0.01-1.16-0.44-2.17-1.29-3.02C324.61,678.41,323.59,677.97,322.43,677.97z"/>
	</g>
</g>
<g id="premium">
	<g>
		<path d="M80.84,650.77c-0.11,2.55-1.13,4.8-3.07,6.73c-1.94,1.94-4.18,2.96-6.75,3.08c-2.56,0.12-4.79-0.76-6.67-2.65
			c-1.73-1.73-2.61-3.7-2.65-5.91l-7.87,7.87l-4.51-4.51l19.68-19.68l4.45,4.45L72,641.65l0.05,0.05c2.36-0.12,4.4,0.69,6.13,2.42
			C80.07,646,80.95,648.22,80.84,650.77z M69.9,654.06c1.16,0.01,2.19-0.44,3.09-1.34c0.9-0.9,1.35-1.91,1.36-3.04
			c0.01-1.13-0.45-2.15-1.36-3.07c-0.88-0.88-1.9-1.32-3.04-1.31c-1.15,0.01-2.16,0.45-3.04,1.34c-0.9,0.9-1.35,1.93-1.34,3.09
			c0.01,1.16,0.44,2.17,1.29,3.02C67.72,653.61,68.73,654.05,69.9,654.06z"/>
		<path d="M73.35,666.16L86.4,653.1l4.51,4.51l-1.88,1.88l0.05,0.05c0.1-0.03,0.24-0.06,0.42-0.09s0.52-0.04,1.03-0.04
			c0.51,0,1.01,0.04,1.5,0.13s1.05,0.28,1.67,0.57s1.17,0.68,1.64,1.16c0.49,0.49,0.91,1.04,1.25,1.65
			c0.34,0.61,0.55,1.09,0.64,1.45l0.15,0.56l-5.7,1.93c-0.08-1.04-0.63-2.05-1.63-3.05c-0.54-0.54-1.13-0.89-1.76-1.04
			c-0.63-0.15-1.19-0.14-1.69,0.04c-0.5,0.18-0.9,0.35-1.21,0.52c-0.31,0.17-0.53,0.32-0.66,0.46l-6.87,6.87L73.35,666.16z"/>
		<path d="M104.99,685.99l-9.47-9.47c-0.92,0.92-1.3,1.89-1.15,2.93c0.15,1.04,0.58,1.9,1.27,2.6c0.73,0.73,1.4,1.21,2.02,1.44
			c0.62,0.23,1.49,0.33,2.61,0.29l1.63,4.89c-3.63,0.92-7.03-0.2-10.18-3.36c-1.97-1.97-2.98-4.33-3.04-7.09
			c-0.06-2.76,0.86-5.09,2.76-6.99c1.9-1.9,4.23-2.83,7-2.78c2.77,0.05,5.13,1.06,7.1,3.03c2.07,2.07,3.16,4.35,3.26,6.85
			c0.1,2.5-0.96,4.85-3.18,7.08C105.32,685.71,105.11,685.91,104.99,685.99z M98.14,674.15l4.96,4.96c0.58-0.78,0.83-1.57,0.76-2.37
			c-0.07-0.8-0.44-1.54-1.12-2.21c-0.75-0.75-1.54-1.15-2.37-1.2C99.55,673.29,98.8,673.56,98.14,674.15z"/>
		<path d="M101.17,693.98l13.06-13.06l4.51,4.51l-1.37,1.37l0.05,0.05c2.34,0,4.17,0.66,5.5,1.99c0.95,0.95,1.65,2.04,2.09,3.26
			c0.44,1.22,0.47,2.45,0.08,3.69c2.92-0.27,5.16,0.37,6.72,1.94c1.39,1.39,2.2,2.98,2.42,4.76c0.22,1.78-0.5,3.5-2.16,5.17
			l-8.6,8.6l-4.51-4.51l7.38-7.38c0.7-0.7,1.09-1.47,1.17-2.32c0.08-0.85-0.25-1.65-1.02-2.42c-0.66-0.66-1.37-0.97-2.11-0.92
			c-0.75,0.05-1.42,0.34-2.01,0.87l-7.79,7.79l-4.51-4.5l7.38-7.38c0.7-0.7,1.09-1.47,1.17-2.32c0.08-0.85-0.25-1.66-1.02-2.42
			c-0.7-0.7-1.43-1-2.22-0.92c-0.78,0.08-1.47,0.42-2.06,1.02l-7.64,7.64L101.17,693.98z"/>
		<path d="M143.81,710.5l-13.06,13.06l-4.51-4.51L139.3,706L143.81,710.5z M144.34,700.25c-0.73,0.73-1.09,1.62-1.09,2.67
			c0,1.05,0.36,1.94,1.09,2.67c0.73,0.73,1.62,1.09,2.67,1.09c1.05,0,1.94-0.37,2.67-1.09c0.73-0.73,1.09-1.62,1.09-2.67
			c0-1.05-0.37-1.94-1.09-2.67c-0.73-0.73-1.62-1.09-2.67-1.09C145.96,699.15,145.07,699.51,144.34,700.25z"/>
		<path d="M151.24,717.94l-6.21,6.21c-1.29,1.29-2.01,2.4-2.16,3.33c-0.15,0.93,0.24,1.87,1.17,2.8c0.93,0.93,1.87,1.32,2.8,1.17
			c0.93-0.15,2.04-0.87,3.33-2.16l6.21-6.21l4.51,4.5l-7.31,7.31c-2.17,2.17-4.3,3.17-6.39,3c-2.09-0.17-4.36-1.48-6.82-3.95
			c-2.46-2.46-3.78-4.73-3.95-6.82c-0.17-2.09,0.83-4.22,3-6.39l7.31-7.31L151.24,717.94z"/>
		<path d="M150.63,743.44l13.06-13.06l4.51,4.51l-1.37,1.38l0.05,0.05c2.34,0,4.17,0.66,5.5,1.99c0.95,0.95,1.65,2.04,2.09,3.26
			s0.47,2.45,0.08,3.69c2.92-0.27,5.16,0.37,6.72,1.93c1.39,1.39,2.2,2.98,2.42,4.76c0.22,1.78-0.5,3.5-2.16,5.17l-8.6,8.6
			l-4.51-4.51l7.38-7.38c0.7-0.7,1.09-1.47,1.17-2.32c0.08-0.85-0.25-1.66-1.02-2.42c-0.66-0.66-1.37-0.97-2.11-0.92
			c-0.75,0.05-1.42,0.34-2.01,0.87l-7.79,7.79l-4.51-4.51l7.38-7.38c0.7-0.7,1.09-1.47,1.17-2.32c0.08-0.85-0.25-1.65-1.02-2.42
			c-0.7-0.7-1.43-1-2.22-0.92c-0.78,0.08-1.47,0.42-2.06,1.02l-7.64,7.64L150.63,743.44z"/>
		<path d="M191,772.92c0.81,0.81,1.22,1.79,1.22,2.93c0,1.14-0.41,2.11-1.22,2.93c-0.8,0.8-1.77,1.2-2.9,1.2
			c-1.14,0-2.11-0.41-2.93-1.22c-0.8-0.8-1.2-1.76-1.2-2.9c0-1.14,0.4-2.1,1.2-2.9c0.81-0.81,1.79-1.22,2.93-1.22
			C189.24,771.72,190.2,772.12,191,772.92z"/>
		<path d="M215.19,788.5c-0.85-0.85-1.89-1.26-3.13-1.25c-1.24,0.02-2.3,0.47-3.18,1.35c-0.9,0.9-1.36,1.97-1.38,3.21
			c-0.02,1.24,0.4,2.28,1.25,3.13c0.41,0.41,0.84,0.74,1.31,1c0.47,0.26,0.83,0.43,1.11,0.5l0.38,0.08l-1.6,4.66
			c-0.2-0.03-0.48-0.09-0.81-0.18c-0.34-0.09-1-0.39-1.97-0.93c-0.98-0.54-1.9-1.23-2.76-2.1c-1.92-1.92-2.93-4.28-3.03-7.08
			c-0.1-2.8,0.79-5.14,2.67-7.03c1.9-1.9,4.26-2.81,7.08-2.72c2.82,0.08,5.18,1.09,7.1,3c0.87,0.87,1.56,1.77,2.09,2.7
			c0.53,0.93,0.84,1.65,0.94,2.16l0.13,0.74l-4.61,1.55C216.61,790.33,216.08,789.4,215.19,788.5z"/>
		<path d="M210.98,803.8l21.89-21.89l4.51,4.51l-10.21,10.21l0.05,0.05c2.34,0,4.18,0.66,5.5,1.99c0.64,0.64,1.2,1.37,1.67,2.18
			c0.47,0.81,0.81,1.68,1.04,2.62c0.23,0.94,0.2,1.92-0.09,2.94c-0.29,1.02-0.87,1.96-1.73,2.83l-8.6,8.6l-4.51-4.51l7.38-7.38
			c0.68-0.68,1.06-1.49,1.13-2.43c0.08-0.94-0.23-1.76-0.93-2.46c-0.68-0.68-1.56-1.03-2.63-1.05c-1.08-0.03-1.94,0.28-2.58,0.93
			l-7.38,7.38L210.98,803.8z"/>
		<path d="M245.38,812.07l-13.06,13.06l-4.51-4.51l13.06-13.06L245.38,812.07z M245.91,801.81c-0.73,0.73-1.1,1.62-1.09,2.67
			c0,1.05,0.36,1.94,1.09,2.67c0.73,0.73,1.62,1.09,2.67,1.09c1.05,0,1.94-0.37,2.67-1.09c0.73-0.73,1.09-1.62,1.09-2.67
			c0-1.05-0.36-1.94-1.09-2.67c-0.73-0.73-1.62-1.09-2.67-1.09C247.53,800.72,246.64,801.08,245.91,801.81z"/>
		<path d="M235.5,828.31l21.89-21.89l4.51,4.51L240,832.82L235.5,828.31z"/>
		<path d="M243.06,835.87l21.89-21.89l4.51,4.51l-21.89,21.89L243.06,835.87z"/>
		<path d="M253.41,843.11c-0.16-2.74,0.77-5.12,2.79-7.14c2.02-2.02,4.43-2.92,7.24-2.71c2.81,0.21,5.32,1.43,7.55,3.65
			c2.19,2.19,3.38,4.69,3.58,7.5c0.2,2.81-0.71,5.21-2.71,7.22c-2,2-4.39,2.92-7.15,2.75c-2.77-0.17-5.28-1.38-7.53-3.64
			C254.82,848.4,253.57,845.86,253.41,843.11z M264.07,839.42c-1.16-0.01-2.19,0.44-3.09,1.34c-0.9,0.9-1.35,1.91-1.36,3.04
			c-0.01,1.13,0.45,2.15,1.36,3.07c0.88,0.88,1.9,1.32,3.04,1.31c1.15-0.01,2.16-0.45,3.04-1.34c0.9-0.9,1.35-1.93,1.34-3.09
			s-0.44-2.17-1.29-3.02C266.25,839.87,265.23,839.43,264.07,839.42z"/>
		<path d="M284.75,851.45l-6.21,6.21c-1.29,1.29-2.01,2.4-2.16,3.33c-0.15,0.93,0.24,1.87,1.17,2.8c0.93,0.93,1.87,1.32,2.8,1.17
			c0.93-0.15,2.04-0.87,3.33-2.16l6.21-6.21l4.51,4.51l-7.31,7.31c-2.17,2.17-4.3,3.17-6.39,3c-2.09-0.17-4.36-1.48-6.82-3.95
			c-2.46-2.46-3.78-4.74-3.95-6.82c-0.17-2.09,0.83-4.22,3-6.39l7.31-7.31L284.75,851.45z"/>
		<path d="M297.84,864.54l4.86-4.86l4.51,4.51l-4.86,4.86l2.75,2.75l-3.44,3.44l-2.75-2.75l-4.15,4.15
			c-1.21,1.21-1.47,2.15-0.79,2.82c0.17,0.17,0.38,0.31,0.64,0.43s0.47,0.2,0.64,0.23l0.25,0.05l-2.52,4.76
			c-1.51-0.42-2.89-1.25-4.12-2.49c-0.85-0.85-1.43-1.73-1.74-2.63c-0.31-0.91-0.38-1.77-0.19-2.58c0.19-0.81,0.49-1.57,0.9-2.25
			c0.42-0.69,0.94-1.34,1.57-1.97l5.02-5.02l-1.88-1.88l3.44-3.44L297.84,864.54z"/>
		<path d="M309.37,891.29c0.81,0.81,1.22,1.79,1.22,2.93c0,1.14-0.41,2.11-1.22,2.93c-0.8,0.8-1.77,1.2-2.9,1.2
			c-1.14,0-2.11-0.41-2.93-1.22c-0.8-0.8-1.2-1.76-1.2-2.9c0-1.14,0.4-2.1,1.2-2.9c0.81-0.81,1.79-1.22,2.93-1.22
			C307.61,890.09,308.57,890.49,309.37,891.29z"/>
		<path d="M341.74,911.67c-0.11,2.55-1.13,4.8-3.07,6.73c-1.94,1.94-4.18,2.96-6.75,3.08c-2.56,0.12-4.79-0.76-6.67-2.65
			c-1.73-1.73-2.61-3.7-2.65-5.91l-7.87,7.87l-4.51-4.51l19.68-19.68l4.45,4.45l-1.48,1.48l0.05,0.05c2.36-0.12,4.4,0.69,6.13,2.42
			C340.96,906.89,341.85,909.11,341.74,911.67z M330.79,914.95c1.16,0.01,2.19-0.44,3.09-1.34c0.9-0.9,1.35-1.91,1.36-3.04
			c0.01-1.13-0.45-2.15-1.36-3.07c-0.88-0.88-1.9-1.32-3.04-1.31c-1.15,0.01-2.16,0.45-3.04,1.34c-0.9,0.9-1.35,1.93-1.34,3.09
			c0.01,1.16,0.44,2.17,1.29,3.02C328.62,914.5,329.63,914.94,330.79,914.95z"/>
		<path d="M337.03,926.74c-0.16-2.74,0.77-5.12,2.79-7.14c2.02-2.02,4.43-2.92,7.24-2.71c2.81,0.21,5.32,1.43,7.55,3.65
			c2.19,2.19,3.38,4.69,3.58,7.5c0.2,2.81-0.71,5.21-2.71,7.22c-2,2-4.39,2.92-7.15,2.75s-5.28-1.38-7.53-3.64
			C338.44,932.02,337.19,929.48,337.03,926.74z M347.69,923.05c-1.16-0.01-2.19,0.44-3.09,1.34c-0.9,0.9-1.35,1.91-1.36,3.04
			c-0.01,1.13,0.45,2.15,1.36,3.07c0.88,0.88,1.9,1.32,3.04,1.31c1.15-0.01,2.16-0.45,3.04-1.34c0.9-0.9,1.35-1.93,1.34-3.09
			c-0.01-1.16-0.44-2.17-1.29-3.02C349.87,923.49,348.86,923.05,347.69,923.05z"/>
		<path d="M375.9,945.83c-0.11,2.55-1.13,4.8-3.07,6.73c-1.94,1.93-4.18,2.96-6.75,3.08c-2.56,0.12-4.79-0.76-6.67-2.65
			c-1.73-1.73-2.61-3.7-2.65-5.91l-7.87,7.87l-4.51-4.5l19.68-19.68l4.45,4.45l-1.48,1.48l0.05,0.05c2.36-0.12,4.4,0.69,6.14,2.42
			C375.12,941.06,376.01,943.27,375.9,945.83z M364.95,949.11c1.16,0.01,2.19-0.44,3.09-1.34c0.9-0.9,1.35-1.91,1.36-3.04
			c0.01-1.13-0.45-2.15-1.36-3.07c-0.88-0.88-1.9-1.32-3.04-1.31c-1.15,0.01-2.16,0.45-3.04,1.34c-0.9,0.9-1.35,1.93-1.34,3.09
			c0.01,1.16,0.44,2.17,1.29,3.02C362.78,948.67,363.79,949.1,364.95,949.11z"/>
		<path d="M383.7,965.62c0.81,0.81,1.22,1.79,1.22,2.93c0,1.14-0.41,2.11-1.22,2.93c-0.8,0.8-1.76,1.2-2.9,1.2
			c-1.14,0-2.11-0.41-2.93-1.22c-0.8-0.8-1.2-1.77-1.2-2.9s0.4-2.1,1.2-2.9c0.81-0.81,1.79-1.22,2.93-1.22
			C381.94,964.42,382.9,964.82,383.7,965.62z"/>
		<path d="M393.69,983.27c0.11-2.55,1.13-4.8,3.07-6.73c1.94-1.93,4.18-2.96,6.75-3.08c2.56-0.12,4.79,0.76,6.67,2.65
			c1.73,1.73,2.61,3.7,2.65,5.9l10.08-10.08l4.51,4.51l-21.89,21.89l-4.45-4.46l1.48-1.48l-0.05-0.05c-2.36,0.12-4.4-0.69-6.13-2.42
			C394.47,988.05,393.58,985.83,393.69,983.27z M404.64,979.99c-1.16-0.01-2.19,0.44-3.09,1.34c-0.9,0.9-1.35,1.91-1.36,3.04
			c-0.01,1.13,0.45,2.15,1.36,3.07c0.88,0.88,1.9,1.32,3.04,1.31c1.14-0.01,2.16-0.45,3.04-1.34c0.9-0.9,1.35-1.93,1.34-3.09
			c-0.01-1.16-0.44-2.17-1.29-3.02C406.82,980.44,405.8,980,404.64,979.99z"/>
		<path d="M411.08,1000.66c0.11-2.55,1.13-4.8,3.07-6.73s4.18-2.96,6.75-3.08c2.56-0.12,4.79,0.76,6.67,2.65
			c1.73,1.73,2.61,3.7,2.65,5.91l1.25-1.25l4.51,4.51l-13.06,13.06l-4.45-4.46l1.48-1.48l-0.05-0.05c-2.36,0.12-4.4-0.69-6.13-2.42
			C411.86,1005.43,410.97,1003.21,411.08,1000.66z M422.03,997.38c-1.16-0.01-2.19,0.44-3.09,1.34c-0.9,0.9-1.35,1.91-1.36,3.04
			s0.45,2.15,1.36,3.07c0.88,0.88,1.9,1.32,3.04,1.31c1.14-0.01,2.16-0.45,3.04-1.34c0.9-0.9,1.35-1.93,1.34-3.09
			s-0.44-2.17-1.29-3.02C424.2,997.82,423.19,997.38,422.03,997.38z"/>
		<path d="M425.96,1018.77l13.06-13.06l4.5,4.5l-1.37,1.37l0.05,0.05c2.34,0,4.17,0.66,5.5,1.99c0.64,0.64,1.2,1.37,1.67,2.18
			c0.47,0.81,0.81,1.68,1.04,2.62c0.23,0.94,0.2,1.92-0.09,2.94c-0.29,1.02-0.87,1.96-1.73,2.83l-8.6,8.6l-4.51-4.5l7.38-7.38
			c0.68-0.68,1.06-1.49,1.13-2.43c0.08-0.94-0.23-1.76-0.93-2.46c-0.68-0.68-1.56-1.03-2.63-1.06c-1.08-0.03-1.94,0.28-2.58,0.93
			l-7.38,7.38L425.96,1018.77z"/>
		<path d="M459.48,1032.8c-0.85-0.85-1.89-1.26-3.13-1.25c-1.24,0.02-2.3,0.47-3.18,1.35c-0.9,0.9-1.36,1.97-1.38,3.21
			c-0.02,1.24,0.4,2.28,1.25,3.13c0.41,0.41,0.84,0.74,1.31,1c0.47,0.26,0.84,0.43,1.11,0.5l0.38,0.08l-1.6,4.66
			c-0.2-0.03-0.48-0.09-0.82-0.18s-1-0.39-1.97-0.93s-1.9-1.23-2.76-2.1c-1.92-1.92-2.93-4.28-3.03-7.08
			c-0.1-2.8,0.79-5.14,2.67-7.03c1.9-1.9,4.26-2.81,7.08-2.72c2.82,0.08,5.18,1.08,7.1,3c0.87,0.87,1.56,1.77,2.09,2.7
			c0.53,0.93,0.84,1.65,0.94,2.16l0.13,0.74l-4.61,1.55C460.91,1034.63,460.38,1033.7,459.48,1032.8z"/>
		<path d="M474.4,1055.4l-9.47-9.47c-0.92,0.92-1.3,1.89-1.15,2.93c0.15,1.04,0.58,1.9,1.27,2.6c0.73,0.73,1.4,1.21,2.02,1.44
			c0.62,0.23,1.49,0.33,2.61,0.29l1.63,4.89c-3.63,0.92-7.03-0.2-10.18-3.36c-1.97-1.97-2.98-4.33-3.04-7.09
			c-0.06-2.76,0.86-5.09,2.76-6.99c1.9-1.9,4.23-2.83,7-2.77c2.77,0.05,5.13,1.06,7.1,3.03c2.07,2.07,3.16,4.35,3.26,6.85
			c0.1,2.5-0.96,4.85-3.18,7.08C474.73,1055.12,474.52,1055.32,474.4,1055.4z M467.55,1043.57l4.96,4.96
			c0.58-0.78,0.83-1.57,0.76-2.37c-0.07-0.8-0.44-1.54-1.12-2.21c-0.75-0.75-1.54-1.15-2.37-1.2
			C468.96,1042.7,468.21,1042.97,467.55,1043.57z"/>
	</g>
</g>
<g id="radio">
	<g>
		<path d="M63.08,324.67l11.74-44.55l-17.25-17.25l-28.14,28.14L1.56,263.15l106.06-106.06l44.69,44.69
			c21.5,21.5,21.5,56.57,0,78.06c-11.31,11.31-26.45,16.55-41.15,15.98l-15.98,60.95L63.08,324.67z M81.6,238.83l17.25,17.25
			c8.48,8.49,21.92,8.63,30.41,0.14c8.49-8.49,8.48-22.06,0-30.55l-17.25-17.25L81.6,238.83z"/>
		<path d="M104.65,366.25l155.56-56.57l12.59,12.59l-56.14,155.99l-27.86-27.86l7.35-20.37l-43.42-43.42l-20.22,7.5L104.65,366.25z
			 M187.1,374.02l21.64,21.64l12.59-34.08L187.1,374.02z"/>
		<path d="M336.87,386.33l39.31,39.31c29.27,29.27,29.27,76.79,0,106.07c-29.27,29.27-76.79,29.27-106.06,0L230.8,492.4
			L336.87,386.33z M286.24,492.39l11.74,11.74c13.86,13.86,36.49,13.86,50.35,0c13.72-13.72,13.72-36.34-0.14-50.2l-11.74-11.74
			L286.24,492.39z"/>
		<path d="M448.3,497.77l27.86,27.86L370.1,631.69l-27.86-27.86L448.3,497.77z"/>
		<path d="M548.29,597.75c29.27,29.27,29.13,76.93-0.14,106.21c-29.27,29.27-76.65,29.13-105.92-0.14
			c-29.27-29.27-29.27-76.51,0-105.78C471.5,568.76,519.01,568.48,548.29,597.75z M520.57,625.47
			c-13.86-13.86-36.49-13.86-50.49,0.14c-13.86,13.86-14,36.63-0.14,50.49c14,14,36.77,13.86,50.63,0
			C534.57,662.1,534.57,639.47,520.57,625.47z"/>
	</g>
</g>
<g id="_x32_3">
	<g>
		<path fill="#FFFFFF" d="M284.94,182.3c3.42-4.14,5.94-8.64,5.94-13.86c0-6.84-6.48-15.48-16.02-15.48
			c-8.64,0-15.66,7.02-15.66,16.02h-28.98c0-23.04,18-44.46,45.72-44.46c26.28,0,43.74,23.04,43.74,45c0,14.04-8.1,24.84-8.1,24.84
			l-25.74,36.54H324v28.62h-93.42L284.94,182.3z"/>
		<path fill="#FFFFFF" d="M364.32,226.4c0,0.18,3.78,4.86,12.42,4.86s14.58-7.74,14.58-15.3s-5.22-16.38-14.76-16.38
			c-9.54,0-12.24,4.86-12.24,4.86l-20.16-20.34l21.6-31.14h-27.9v-28.44h82.62l-33.84,48.06c0,0,32.94,8.28,32.94,43.2
			c0,27-22.5,43.74-42.84,43.74c-20.34,0-32.58-12.6-32.58-12.78C344.16,246.56,364.32,226.22,364.32,226.4z"/>
	</g>
	<g>
	</g>
	<g>
	</g>
	<g>
	</g>
	<g>
	</g>
	<g>
	</g>
	<g>
	</g>
</g>
</svg>
